<svg xmlns="http://www.w3.org/2000/svg" version="1.1" xmlns:xlink="http://www.w3.org/1999/xlink" xmlns:svgjs="http://svgjs.dev/svgjs" width="1500" height="1500" viewBox="0 0 1500 1500"><rect width="1500" height="1500" fill="#000000"></rect><g transform="matrix(0.6666666666666666,0,0,0.6666666666666666,248.4426604361371,189.33333333333348)"><svg viewBox="0 0 321 360" data-background-color="#000000" preserveAspectRatio="xMidYMid meet" height="1682" width="1500" xmlns="http://www.w3.org/2000/svg" xmlns:xlink="http://www.w3.org/1999/xlink"><g id="tight-bounds" transform="matrix(1,0,0,1,0.499953000000005,0)"><svg viewBox="0 0 320 360" height="360" width="320"><rect width="320.000141" height="360" fill="url(#663a64fc-9a20-43a1-bb4b-8b287ee9caa7)" mask="url(#00fb0d74-ab6f-496b-a7e1-cbf3e0b119ff)" data-fill-palette-color="tertiary"></rect><g><svg></svg></g><g><svg viewBox="0 0 320 360" height="360" width="320"><g><path transform="translate(-74.99272,-51.79039) scale(4.65793,4.65793)" d="M20.6 59.9l0.8 1-0.4-1.3c-0.1-0.6-0.8 0.1-0.4 0.3M21.5 59.3c0.3 0.5 0.6 1 0.6 1.5 0 0.7 0.6 1 1.1 1.2-0.7-0.8-1.1-3-1.7-2.7M59.9 16.9c1.7 0 3.3-0.2 5.1 0.2 4.4 1.1 8.1 3.3 10.6 6.4l7 11.2c0.3 2.8 0.9 5.9 0.8 9.3 0.7 0 0.6-1 1.4-1.2-0.8 2-1.2 4.5-1.4 7.4-0.5-1.6 0-4 0.1-5.3-0.7 1.1-1.1 0.3-1.1-0.2 0.1-0.8-0.3-0.7-0.6-1-1.1-1-1.8-2.1-2.6-3.8 0.5-1.3 0.6-3.2-1-4.2-0.5-0.3-1.1-0.8-1.4-1.6-0.4-1.1-1.1-2.4-0.9-4.1 0.1-0.5-1.5 1.1-2.4 0.4-3.9-2.7-7.8-5.8-12.5-8.4-2.5 0-4.3-0.9-5.2-2-0.8-1-0.2-2.3 1-2.4 0.7 0 1.5-0.2 2.1 0.2 0.1-0.4 0.5-0.9 1-0.9M50 14.6l0.2 0.1c1 0.2 1.5 1.6 2.6 1.1 0 0.7 0.1 1.4-0.1 1.9-0.3 0.8-1.2 0.8-1.9 0.8-6.7-0.4-10.6 2.4-14.7 4.8-1.1 0.7-2.3 1.2-3.2 2.1-4.3 4-9 7.7-10.1 15.1l-0.9 8.2c-0.1 0.9-1.1 1.8-0.9 2.9l0.7 4.9c-0.7-0.7-1.1 0.2-0.9 0.6 0.1 0.3 0.5 1.3 1.1 0.4 0.8 1.5 1.6 4.4 2.7 5.7 3.4 4 7.8 7.6 11.4 11.2 0.9-0.2 1.6-0.2 1.8-0.8 0.3 0.6-0.3 1.2-0.8 1.3 1.6 1 3.4 1.9 5.8 2.1 3.1 0.2 6 0.7 8.7 1.4 1.4-0.4 2.8-0.6 4.3-0.7 0.5 0 0.8-0.8 1.4-1l0.1-1c0.6 0.9 0.5-0.3 0.1-0.9 0.7 0.6 0.9 1.1 1.2 1.5 0-0.3 0.8-1.4 0.8-0.1l0.2-1.3c0.3-0.2 0.4 1.1 0.7 0.2 0.3-0.9 0.9-0.2 1.5-0.5-0.2 0.4-0.1 1.2 0.6 0.7l0.8-0.7c0.5 1.2 1.3 0.7 1.7 0.5 4.4-2.8 8.8-6.1 13-9.4l-0.1 1.3 0.5-1.6c0.5 0.5 0.9 0.1 1.1-0.2 0.6-1 1.4-2 2.7-2.9-1.6 4.3-3.5 7.7-5.9 10.5l-1 1.2c0 0.7-0.2 1.6-1 1.7-0.4 0.1-1.2-0.2-1.8 0.4-0.3 0.4 0.7 1.2-0.1 0.6-0.7-0.5-1.4 0-2.2 0.2-0.6 0.2 0.4 0.8 0.6 1.2 0.2 0.4 0.4 0.8 0.3 1.3l-1.1-1.2c-1.3 0.7-2.1 2-3.2 3-0.5 0.4-0.3 1.1-0.3 1.7-0.7 0-1.5-0.2-1.9 0.2-0.3 0.4-0.2 1-0.2 1.6-1-0.1-1.1-1.6-2-1.3-0.9 0.2-1.9 0.3-2.7 0.8 0.6 1.2-1 0.5-0.8 0.7-1.5-0.9-2.8-1.6-4.4-1-3.4-1.1-7.6-0.6-10.7-0.2 0-0.5 0.1-1-0.1-1.1-0.2 0.5-0.8 0.3-0.7 0.3-1.9-1.3-3.8-2.1-5.8-3.2-1.8 0.2-3.5-0.7-4-1.2-1.4-1.3-3-0.6-4.3-0.9-2.8-0.7-3.8-3.6-4.1-5.6-0.2-1-1-1.4-1.3-1.3-1.3-4.2-3.3-8-4.9-11.9-0.4-1-0.3-2-0.3-3.1 0.5 0.2 1 0.1 0.9-0.6-0.5-3.3-1.7-5.8-3-8.2 0.7-3.4 0.8-7.4 2.4-10.4 1.4-2.7 4-4.1 5.8-6.4 0.6-0.8 0.6-1.9 1.2-2.6 2-2 4-4.1 6.2-5.9 1-0.8 2.2 0 3.7-0.3 0.5-1.8 2.5-3.4 4.4-2.9 0.8 0.2 2.4-1.9 2.9-2.1 0.8-0.3 0.4 0.8 0.4 1.5 1.9-1.5 4.5-2.3 6.9-3.2" fill="url(#663a64fc-9a20-43a1-bb4b-8b287ee9caa7)" fill-rule="nonzero" stroke="none" stroke-width="1" stroke-linecap="butt" stroke-linejoin="miter" stroke-miterlimit="10" stroke-dasharray="" stroke-dashoffset="0" font-family="none" font-weight="none" font-size="none" text-anchor="none" style="mix-blend-mode: normal" data-fill-palette-color="tertiary"></path></g><g transform="matrix(1,0,0,1,64,109.12864396460178)"><svg viewBox="0 0 192 141.74271207079644" height="141.74271207079644" width="192"><g><svg viewBox="0 0 192 141.74271207079644" height="141.74271207079644" width="192"><g><svg viewBox="0 0 192 141.74271207079644" height="141.74271207079644" width="192"><g transform="matrix(1,0,0,1,0,85.67191561061946)"><svg viewBox="0 0 192 56.070796460176986" height="56.070796460176986" width="192"><g id="textblocktransform"><svg viewBox="0 0 192 56.070796460176986" height="56.070796460176986" width="192" id="textblock"><g><svg viewBox="0 0 192 56.070796460176986" height="56.070796460176986" width="192"><g transform="matrix(1,0,0,1,0,0)"><svg width="192" viewBox="2.4 -32.5 112.99 33" height="56.070796460176986" data-palette-color="url(#c81b2a60-f88d-4fca-847c-564e5d239b27)"></svg></g></svg></g></svg></g></svg></g><g transform="matrix(1,0,0,1,74.94224345840254,0)"><svg viewBox="0 0 42.11551308319492 77.4898407079646" height="77.4898407079646" width="42.11551308319492"><g><svg xmlns="http://www.w3.org/2000/svg" data-name="Layer 1" viewBox="0 0 190.686 350.85" x="0" y="0" id="icon-0" width="42.11551308319492" height="77.4898407079646" class="icon-icon-0" data-fill-palette-color="accent"></svg></g></svg></g><g></g></svg></g></svg></g></svg></g></svg></g><defs></defs><mask id="805e2176-8b3e-4567-804a-7100c703dbf7"><g id="SvgjsG1511"><svg viewBox="0 0 320 360" height="360" width="320"><g><svg></svg></g><g><svg viewBox="0 0 320 360" height="360" width="320"><g><path transform="translate(-74.99272,-51.79039) scale(4.65793,4.65793)" d="M20.6 59.9l0.8 1-0.4-1.3c-0.1-0.6-0.8 0.1-0.4 0.3M21.5 59.3c0.3 0.5 0.6 1 0.6 1.5 0 0.7 0.6 1 1.1 1.2-0.7-0.8-1.1-3-1.7-2.7M59.9 16.9c1.7 0 3.3-0.2 5.1 0.2 4.4 1.1 8.1 3.3 10.6 6.4l7 11.2c0.3 2.8 0.9 5.9 0.8 9.3 0.7 0 0.6-1 1.4-1.2-0.8 2-1.2 4.5-1.4 7.4-0.5-1.6 0-4 0.1-5.3-0.7 1.1-1.1 0.3-1.1-0.2 0.1-0.8-0.3-0.7-0.6-1-1.1-1-1.8-2.1-2.6-3.8 0.5-1.3 0.6-3.2-1-4.2-0.5-0.3-1.1-0.8-1.4-1.6-0.4-1.1-1.1-2.4-0.9-4.1 0.1-0.5-1.5 1.1-2.4 0.4-3.9-2.7-7.8-5.8-12.5-8.4-2.5 0-4.3-0.9-5.2-2-0.8-1-0.2-2.3 1-2.4 0.7 0 1.5-0.2 2.1 0.2 0.1-0.4 0.5-0.9 1-0.9M50 14.6l0.2 0.1c1 0.2 1.5 1.6 2.6 1.1 0 0.7 0.1 1.4-0.1 1.9-0.3 0.8-1.2 0.8-1.9 0.8-6.7-0.4-10.6 2.4-14.7 4.8-1.1 0.7-2.3 1.2-3.2 2.1-4.3 4-9 7.7-10.1 15.1l-0.9 8.2c-0.1 0.9-1.1 1.8-0.9 2.9l0.7 4.9c-0.7-0.7-1.1 0.2-0.9 0.6 0.1 0.3 0.5 1.3 1.1 0.4 0.8 1.5 1.6 4.4 2.7 5.7 3.4 4 7.8 7.6 11.4 11.2 0.9-0.2 1.6-0.2 1.8-0.8 0.3 0.6-0.3 1.2-0.8 1.3 1.6 1 3.4 1.9 5.8 2.1 3.1 0.2 6 0.7 8.7 1.4 1.4-0.4 2.8-0.6 4.3-0.7 0.5 0 0.8-0.8 1.4-1l0.1-1c0.6 0.9 0.5-0.3 0.1-0.9 0.7 0.6 0.9 1.1 1.2 1.5 0-0.3 0.8-1.4 0.8-0.1l0.2-1.3c0.3-0.2 0.4 1.1 0.7 0.2 0.3-0.9 0.9-0.2 1.5-0.5-0.2 0.4-0.1 1.2 0.6 0.7l0.8-0.7c0.5 1.2 1.3 0.7 1.7 0.5 4.4-2.8 8.8-6.1 13-9.4l-0.1 1.3 0.5-1.6c0.5 0.5 0.9 0.1 1.1-0.2 0.6-1 1.4-2 2.7-2.9-1.6 4.3-3.5 7.7-5.9 10.5l-1 1.2c0 0.7-0.2 1.6-1 1.7-0.4 0.1-1.2-0.2-1.8 0.4-0.3 0.4 0.7 1.2-0.1 0.6-0.7-0.5-1.4 0-2.2 0.2-0.6 0.2 0.4 0.8 0.6 1.2 0.2 0.4 0.4 0.8 0.3 1.3l-1.1-1.2c-1.3 0.7-2.1 2-3.2 3-0.5 0.4-0.3 1.1-0.3 1.7-0.7 0-1.5-0.2-1.9 0.2-0.3 0.4-0.2 1-0.2 1.6-1-0.1-1.1-1.6-2-1.3-0.9 0.2-1.9 0.3-2.7 0.8 0.6 1.2-1 0.5-0.8 0.7-1.5-0.9-2.8-1.6-4.4-1-3.4-1.1-7.6-0.6-10.7-0.2 0-0.5 0.1-1-0.1-1.1-0.2 0.5-0.8 0.3-0.7 0.3-1.9-1.3-3.8-2.1-5.8-3.2-1.8 0.2-3.5-0.7-4-1.2-1.4-1.3-3-0.6-4.3-0.9-2.8-0.7-3.8-3.6-4.1-5.6-0.2-1-1-1.4-1.3-1.3-1.3-4.2-3.3-8-4.9-11.9-0.4-1-0.3-2-0.3-3.1 0.5 0.2 1 0.1 0.9-0.6-0.5-3.3-1.7-5.8-3-8.2 0.7-3.4 0.8-7.4 2.4-10.4 1.4-2.7 4-4.1 5.8-6.4 0.6-0.8 0.6-1.9 1.2-2.6 2-2 4-4.1 6.2-5.9 1-0.8 2.2 0 3.7-0.3 0.5-1.8 2.5-3.4 4.4-2.9 0.8 0.2 2.4-1.9 2.9-2.1 0.8-0.3 0.4 0.8 0.4 1.5 1.9-1.5 4.5-2.3 6.9-3.2" fill="black" fill-rule="nonzero" stroke="none" stroke-width="1" stroke-linecap="butt" stroke-linejoin="miter" stroke-miterlimit="10" stroke-dasharray="" stroke-dashoffset="0" font-family="none" font-weight="none" font-size="none" text-anchor="none" style="mix-blend-mode: normal"></path></g><g transform="matrix(1,0,0,1,64,109.12864396460178)"><svg viewBox="0 0 192 141.74271207079644" height="141.74271207079644" width="192"><g><svg viewBox="0 0 192 141.74271207079644" height="141.74271207079644" width="192"><g><svg viewBox="0 0 192 141.74271207079644" height="141.74271207079644" width="192"><g transform="matrix(1,0,0,1,0,85.67191561061946)"><svg viewBox="0 0 192 56.070796460176986" height="56.070796460176986" width="192"><g id="SvgjsG1510"><svg viewBox="0 0 192 56.070796460176986" height="56.070796460176986" width="192" id="SvgjsSvg1509"><g><svg viewBox="0 0 192 56.070796460176986" height="56.070796460176986" width="192"><g transform="matrix(1,0,0,1,0,0)"><svg width="192" viewBox="2.4 -32.5 112.99 33" height="56.070796460176986" data-palette-color="url(#c81b2a60-f88d-4fca-847c-564e5d239b27)"><path d="M12.75-32.5L12.75-32.5Q14.3-32.5 15.33-32.33 16.35-32.15 17.43-31.85 18.5-31.55 20.1-31.15L20.1-31.15Q20.4-29.25 20.58-27.23 20.75-25.2 20.8-24.2L20.8-24.2Q20.85-23.95 20.45-23.83 20.05-23.7 19.8-23.7L19.8-23.7Q19.45-23.7 19.25-23.9L19.25-23.9Q19.15-24.8 18.65-26 18.15-27.2 17.28-28.3 16.4-29.4 15.18-30.13 13.95-30.85 12.4-30.85L12.4-30.85Q10.4-30.85 9.25-30 8.1-29.15 7.6-27.9 7.1-26.65 7.1-25.45L7.1-25.45Q7.1-23.5 8.13-22.2 9.15-20.9 10.73-19.9 12.3-18.9 13.9-17.85L13.9-17.85Q15.1-17.1 16.55-16.2 18-15.3 19.35-14.2 20.7-13.1 21.55-11.68 22.4-10.25 22.4-8.45L22.4-8.45Q22.4-5.8 20.93-3.78 19.45-1.75 17.13-0.63 14.8 0.5 12.2 0.5L12.2 0.5Q9.75 0.5 7.48-0.05 5.2-0.6 3.4-0.95L3.4-0.95Q3.1-2.4 2.88-4.05 2.65-5.7 2.53-6.95 2.4-8.2 2.4-8.5L2.4-8.5Q2.65-8.75 2.98-8.93 3.3-9.1 3.65-9.1L3.65-9.1Q4.1-9.1 4.2-8.65L4.2-8.65Q4.35-7.95 4.83-6.73 5.3-5.5 6.23-4.2 7.15-2.9 8.63-2.02 10.1-1.15 12.3-1.15L12.3-1.15Q14.65-1.15 16.4-2.73 18.15-4.3 18.15-7.15L18.15-7.15Q18.15-9.2 17.23-10.35 16.3-11.5 14.83-12.35 13.35-13.2 11.65-14.15L11.65-14.15Q9.8-15.25 7.83-16.57 5.85-17.9 4.5-19.7 3.15-21.5 3.15-23.95L3.15-23.95Q3.15-26.55 4.53-28.48 5.9-30.4 8.1-31.45 10.3-32.5 12.75-32.5ZM41.3-5.1L41.3-15.6Q41.3-15.65 41.3-15.8L41.3-15.8Q41.3-16.3 41.25-17.03 41.2-17.75 40.95-18.25L40.95-18.25Q40.6-18.95 39.65-19.1 38.7-19.25 38.2-19.25L38.2-19.25Q38.1-19.35 38.07-19.83 38.05-20.3 38.2-20.5L38.2-20.5Q40.1-20.6 41.85-20.85 43.6-21.1 44.9-21.5L44.9-21.5Q45.1-21.5 45.25-21 45.4-20.5 45.4-20.3L45.4-20.3Q45.25-20 45.17-19.1 45.1-18.2 45.1-17.15L45.1-17.15 45.1-6.9Q45.1-6.5 45.15-5.33 45.2-4.15 45.4-3.15L45.4-3.15Q45.55-2.55 46.52-2.45 47.5-2.35 48-2.3L48-2.3Q48.25-2.3 48.3-2.3L48.3-2.3Q48.4-2.25 48.42-2.05 48.45-1.85 48.45-1.75L48.45-1.75Q48.45-1.7 48.35-1.35 48.25-1 48.05-1L48.05-1Q46.8-0.95 45.32-0.6 43.85-0.25 42.8 0.08 41.75 0.4 41.7 0.4L41.7 0.4Q41.5 0.4 41.4 0.13 41.3-0.15 41.3-0.4L41.3-0.4 41.3-2.65Q41.3-2.85 41.25-2.88 41.2-2.9 41.2-2.9L41.2-2.9Q40.55-2.2 39.4-1.43 38.25-0.65 36.9-0.15 35.55 0.35 34.3 0.35L34.3 0.35Q32.35 0.35 31.15-0.58 29.95-1.5 29.3-2.98 28.65-4.45 28.42-6.15 28.2-7.85 28.2-9.4L28.2-9.4 28.2-15.6Q28.2-16.1 28.15-16.9 28.1-17.7 27.8-18.25L27.8-18.25Q27.45-18.95 26.5-19.1 25.55-19.25 25.05-19.25L25.05-19.25Q24.95-19.35 24.92-19.83 24.9-20.3 25.05-20.5L25.05-20.5Q26.95-20.6 28.7-20.85 30.45-21.1 31.75-21.5L31.75-21.5Q31.95-21.5 32.12-21.1 32.3-20.7 32.3-20.5L32.3-20.5Q32.15-20.2 32.05-19.2 31.95-18.2 31.95-17.15L31.95-17.15 31.95-9.95Q31.95-6.05 33.12-4.23 34.3-2.4 36.85-2.4L36.85-2.4Q37.95-2.4 38.95-2.83 39.95-3.25 40.62-3.9 41.3-4.55 41.3-5.1L41.3-5.1ZM64.94-21.4L64.94-21.4Q67.14-21.4 68.52-20.48 69.89-19.55 70.5-17.35L70.5-17.35Q72.09-18.8 74.02-20.1 75.94-21.4 77.69-21.4L77.69-21.4Q80.34-21.4 81.69-20.3 83.05-19.2 83.52-16.9 84-14.6 84-11.05L84-11.05 84-5.65Q84-4.55 84.02-3.6 84.05-2.65 84.25-2.05L84.25-2.05Q84.34-1.8 84.97-1.6 85.59-1.4 86.3-1.33 87-1.25 87.3-1.25L87.3-1.25Q87.44-1.05 87.47-0.55 87.5-0.05 87.3 0.15L87.3 0.15Q85.8 0.05 84.67-0.03 83.55-0.1 82.09-0.1L82.09-0.1Q80.69-0.1 79.55-0.03 78.39 0.05 76.89 0.15L76.89 0.15Q76.69-0.05 76.72-0.55 76.75-1.05 76.89-1.25L76.89-1.25Q77.19-1.25 77.92-1.33 78.64-1.4 79.3-1.6 79.94-1.8 80-2.05L80-2.05Q80.14-2.55 80.17-3.33 80.19-4.1 80.19-5.05L80.19-5.05Q80.19-5.2 80.19-5.35 80.19-5.5 80.19-5.65L80.19-5.65 80.19-10.9Q80.19-13.35 79.87-15.05 79.55-16.75 78.59-17.65 77.64-18.55 75.64-18.55L75.64-18.55Q74.44-18.55 73.34-17.93 72.25-17.3 71.55-16.63 70.84-15.95 70.84-15.75L70.84-15.75Q70.84-15.7 70.87-15.48 70.89-15.25 70.89-15.15L70.89-15.15Q71-14.45 71.05-13.4 71.09-12.35 71.09-11.65L71.09-11.65 71.09-5.65Q71.09-4.55 71.12-3.6 71.14-2.65 71.34-2.05L71.34-2.05Q71.44-1.8 72.07-1.6 72.69-1.4 73.39-1.33 74.09-1.25 74.39-1.25L74.39-1.25Q74.55-1.05 74.57-0.55 74.59-0.05 74.39 0.15L74.39 0.15Q72.89 0.05 71.77-0.03 70.64-0.1 69.19-0.1L69.19-0.1Q67.8-0.1 66.64-0.03 65.5 0.05 63.99 0.15L63.99 0.15Q63.8-0.05 63.82-0.55 63.84-1.05 63.99-1.25L63.99-1.25Q64.3-1.25 65.02-1.33 65.75-1.4 66.39-1.6 67.05-1.8 67.09-2.05L67.09-2.05Q67.3-2.65 67.32-3.6 67.34-4.55 67.34-5.65L67.34-5.65 67.34-10.65Q67.34-15.1 66.37-16.82 65.39-18.55 62.74-18.55L62.74-18.55Q61.64-18.55 60.59-18 59.55-17.45 58.87-16.82 58.2-16.2 58.2-15.85L58.2-15.85 58.2-5.65Q58.2-4.55 58.22-3.6 58.24-2.65 58.45-2.05L58.45-2.05Q58.55-1.8 59.17-1.6 59.8-1.4 60.49-1.33 61.2-1.25 61.49-1.25L61.49-1.25Q61.64-1.05 61.67-0.55 61.7-0.05 61.49 0.15L61.49 0.15Q59.99 0.05 58.87-0.03 57.74-0.1 56.3-0.1L56.3-0.1Q54.89-0.1 53.74-0.03 52.59 0.05 51.09 0.15L51.09 0.15Q50.89-0.05 50.92-0.55 50.95-1.05 51.09-1.25L51.09-1.25Q51.39-1.25 52.12-1.33 52.84-1.4 53.49-1.6 54.14-1.8 54.2-2.05L54.2-2.05Q54.39-2.65 54.42-3.6 54.45-4.55 54.45-5.65L54.45-5.65 54.45-14.55Q54.45-15.05 54.42-15.95 54.39-16.85 54.2-17.3L54.2-17.3Q54.05-17.75 53.34-17.93 52.64-18.1 51.95-18.13 51.24-18.15 51.05-18.15L51.05-18.15Q50.99-18.25 50.95-18.75 50.89-19.25 51.05-19.45L51.05-19.45Q52.95-19.7 54.74-20.2 56.55-20.7 57.99-21.5L57.99-21.5Q58.2-21.5 58.37-21.2 58.55-20.9 58.55-20.7L58.55-20.7Q58.55-20.55 58.47-20 58.39-19.45 58.32-18.9 58.24-18.35 58.24-18.15L58.24-18.15Q58.24-17.95 58.34-17.95L58.34-17.95Q58.39-17.95 58.49-18.05L58.49-18.05Q59.09-18.6 60.09-19.38 61.09-20.15 62.37-20.78 63.64-21.4 64.94-21.4ZM92.04-28.95L92.04-28.95Q92.04-29.95 92.77-30.68 93.49-31.4 94.49-31.4L94.49-31.4Q95.49-31.4 96.22-30.68 96.94-29.95 96.94-28.95L96.94-28.95Q96.94-27.95 96.22-27.23 95.49-26.5 94.49-26.5L94.49-26.5Q93.49-26.5 92.77-27.23 92.04-27.95 92.04-28.95ZM96.74-17.5L96.74-5.65Q96.74-4.55 96.77-3.6 96.79-2.65 96.99-2.05L96.99-2.05Q97.09-1.8 97.72-1.6 98.34-1.4 99.04-1.33 99.74-1.25 100.04-1.25L100.04-1.25Q100.19-1.05 100.22-0.55 100.24-0.05 100.04 0.15L100.04 0.15Q98.54 0.05 97.42-0.03 96.29-0.1 94.84-0.1L94.84-0.1Q93.44-0.1 92.29-0.03 91.14 0.05 89.64 0.15L89.64 0.15Q89.44-0.05 89.47-0.55 89.49-1.05 89.64-1.25L89.64-1.25Q89.94-1.25 90.67-1.33 91.39-1.4 92.04-1.6 92.69-1.8 92.74-2.05L92.74-2.05Q92.94-2.65 92.97-3.6 92.99-4.55 92.99-5.65L92.99-5.65 92.99-14.75Q92.99-15.25 92.97-16.05 92.94-16.85 92.74-17.3L92.74-17.3Q92.59-17.75 91.89-17.93 91.19-18.1 90.49-18.13 89.79-18.15 89.59-18.15L89.59-18.15Q89.54-18.25 89.49-18.75 89.44-19.25 89.59-19.45L89.59-19.45Q91.49-19.7 93.29-20.2 95.09-20.7 96.54-21.5L96.54-21.5Q96.74-21.5 96.92-21.2 97.09-20.9 97.09-20.7L97.09-20.7Q97.09-20.55 96.99-19.85 96.89-19.15 96.82-18.45 96.74-17.75 96.74-17.5L96.74-17.5ZM108.84-27.5L108.84-21.1 115.14-21.1Q115.39-21.1 115.39-20.55L115.39-20.55Q115.39-19.8 114.69-19.1L114.69-19.1 108.84-19.1 108.84-6.3Q108.84-2.3 112.09-2.3L112.09-2.3Q113.19-2.3 114.09-2.75 114.99-3.2 115.24-3.4L115.24-3.4Q115.39-3.35 115.39-3.1L115.39-3.1Q115.39-2.55 115.19-2.35L115.19-2.35Q114.84-1.95 114.12-1.3 113.39-0.65 112.39-0.15 111.39 0.35 110.19 0.35L110.19 0.35Q108.94 0.35 107.77-0.1 106.59-0.55 105.84-1.7 105.09-2.85 105.09-4.95L105.09-4.95 105.09-19.1 102.24-19.1Q102.14-19.1 102.09-19.28 102.04-19.45 102.04-19.55L102.04-19.55Q102.04-19.65 102.34-20.03 102.64-20.4 102.97-20.75 103.29-21.1 103.29-21.1L103.29-21.1 105.09-21.1 105.09-24.15Q105.59-24.7 106.27-25.43 106.94-26.15 107.49-26.78 108.04-27.4 108.09-27.45L108.09-27.45Q108.29-27.65 108.57-27.65 108.84-27.65 108.84-27.5L108.84-27.5Z" opacity="1" transform="matrix(1,0,0,1,0,0)" fill="white" class="wordmark-text-0" id="SvgjsPath1508"></path></svg></g></svg></g></svg></g></svg></g><g transform="matrix(1,0,0,1,74.94224345840254,0)"><svg viewBox="0 0 42.11551308319492 77.4898407079646" height="77.4898407079646" width="42.11551308319492"><g><svg xmlns="http://www.w3.org/2000/svg" data-name="Layer 1" viewBox="0 0 190.686 350.85" x="0" y="0" id="SvgjsSvg1507" width="42.11551308319492" height="77.4898407079646" class="icon-icon-0" data-fill-palette-color="accent"><path d="M181.936 350.85H8.75A8.76 8.76 0 0 1 0 342.1V329.478A24.8 24.8 0 0 1 3.137 318.257L88.472 177.749A5.41 5.41 0 0 0 88.474 173.101L3.14 32.607A24.8 24.8 0 0 1 0 21.382V8.75A8.76 8.76 0 0 1 8.75 0H181.936A8.76 8.76 0 0 1 190.686 8.75V29.19A8.76 8.76 0 0 1 181.936 37.94H53.765L124.128 153.212A24.6 24.6 0 0 1 127.283 164.433V186.817A24.6 24.6 0 0 1 124.12 198.042L53.767 312.9 181.937 312.92A8.76 8.76 0 0 1 190.686 321.67V342.1A8.76 8.76 0 0 1 181.935 350.85M8.75 7.5A1.265 1.265 0 0 0 7.5 8.75V21.382A17.6 17.6 0 0 0 9.553 28.716L94.883 169.204A12.77 12.77 0 0 1 94.88 181.646L9.55 322.148A17.6 17.6 0 0 0 7.5 329.478V342.1A1.265 1.265 0 0 0 8.75 343.35H181.936A1.265 1.265 0 0 0 183.186 342.1V321.67A1.265 1.265 0 0 0 181.936 320.42H52.061A6.253 6.253 0 0 1 46.477 310.444L117.722 194.126A17.4 17.4 0 0 0 119.782 186.816V164.434A17.4 17.4 0 0 0 117.728 157.119L46.465 40.41A6.258 6.258 0 0 1 52.06 30.44H181.936A1.265 1.265 0 0 0 183.186 29.19V8.75A1.265 1.265 0 0 0 181.936 7.5Z" fill="black"></path></svg></g></svg></g><g></g></svg></g></svg></g></svg></g></svg></g><defs><mask></mask></defs></svg><rect width="320" height="360" fill="black" stroke="none" visibility="hidden"></rect></g></mask><linearGradient x1="0.054" x2="0.941" y1="0.5" y2="0.5" id="c81b2a60-f88d-4fca-847c-564e5d239b27"><stop stop-color="#864d25" offset="0"></stop><stop stop-color="#f1c4b3" offset="0.498"></stop><stop stop-color="#864d25" offset="1"></stop></linearGradient><rect width="320.000047" height="360" fill="url(#c81b2a60-f88d-4fca-847c-564e5d239b27)" mask="url(#805e2176-8b3e-4567-804a-7100c703dbf7)" data-fill-palette-color="primary"></rect><mask id="4207ca3c-a8bd-459a-a689-5ed4769f78bf"><g id="SvgjsG1530"><svg viewBox="0 0 320 360" height="360" width="320"><g><svg></svg></g><g><svg viewBox="0 0 320 360" height="360" width="320"><g><path transform="translate(-74.99272,-51.79039) scale(4.65793,4.65793)" d="M20.6 59.9l0.8 1-0.4-1.3c-0.1-0.6-0.8 0.1-0.4 0.3M21.5 59.3c0.3 0.5 0.6 1 0.6 1.5 0 0.7 0.6 1 1.1 1.2-0.7-0.8-1.1-3-1.7-2.7M59.9 16.9c1.7 0 3.3-0.2 5.1 0.2 4.4 1.1 8.1 3.3 10.6 6.4l7 11.2c0.3 2.8 0.9 5.9 0.8 9.3 0.7 0 0.6-1 1.4-1.2-0.8 2-1.2 4.5-1.4 7.4-0.5-1.6 0-4 0.1-5.3-0.7 1.1-1.1 0.3-1.1-0.2 0.1-0.8-0.3-0.7-0.6-1-1.1-1-1.8-2.1-2.6-3.8 0.5-1.3 0.6-3.2-1-4.2-0.5-0.3-1.1-0.8-1.4-1.6-0.4-1.1-1.1-2.4-0.9-4.1 0.1-0.5-1.5 1.1-2.4 0.4-3.9-2.7-7.8-5.8-12.5-8.4-2.5 0-4.3-0.9-5.2-2-0.8-1-0.2-2.3 1-2.4 0.7 0 1.5-0.2 2.1 0.2 0.1-0.4 0.5-0.9 1-0.9M50 14.6l0.2 0.1c1 0.2 1.5 1.6 2.6 1.1 0 0.7 0.1 1.4-0.1 1.9-0.3 0.8-1.2 0.8-1.9 0.8-6.7-0.4-10.6 2.4-14.7 4.8-1.1 0.7-2.3 1.2-3.2 2.1-4.3 4-9 7.7-10.1 15.1l-0.9 8.2c-0.1 0.9-1.1 1.8-0.9 2.9l0.7 4.9c-0.7-0.7-1.1 0.2-0.9 0.6 0.1 0.3 0.5 1.3 1.1 0.4 0.8 1.5 1.6 4.4 2.7 5.7 3.4 4 7.8 7.6 11.4 11.2 0.9-0.2 1.6-0.2 1.8-0.8 0.3 0.6-0.3 1.2-0.8 1.3 1.6 1 3.4 1.9 5.8 2.1 3.1 0.2 6 0.7 8.7 1.4 1.4-0.4 2.8-0.6 4.3-0.7 0.5 0 0.8-0.8 1.4-1l0.1-1c0.6 0.9 0.5-0.3 0.1-0.9 0.7 0.6 0.9 1.1 1.2 1.5 0-0.3 0.8-1.4 0.8-0.1l0.2-1.3c0.3-0.2 0.4 1.1 0.7 0.2 0.3-0.9 0.9-0.2 1.5-0.5-0.2 0.4-0.1 1.2 0.6 0.7l0.8-0.7c0.5 1.2 1.3 0.7 1.7 0.5 4.4-2.8 8.8-6.1 13-9.4l-0.1 1.3 0.5-1.6c0.5 0.5 0.9 0.1 1.1-0.2 0.6-1 1.4-2 2.7-2.9-1.6 4.3-3.5 7.7-5.9 10.5l-1 1.2c0 0.7-0.2 1.6-1 1.7-0.4 0.1-1.2-0.2-1.8 0.4-0.3 0.4 0.7 1.2-0.1 0.6-0.7-0.5-1.4 0-2.2 0.2-0.6 0.2 0.4 0.8 0.6 1.2 0.2 0.4 0.4 0.8 0.3 1.3l-1.1-1.2c-1.3 0.7-2.1 2-3.2 3-0.5 0.4-0.3 1.1-0.3 1.7-0.7 0-1.5-0.2-1.9 0.2-0.3 0.4-0.2 1-0.2 1.6-1-0.1-1.1-1.6-2-1.3-0.9 0.2-1.9 0.3-2.7 0.8 0.6 1.2-1 0.5-0.8 0.7-1.5-0.9-2.8-1.6-4.4-1-3.4-1.1-7.6-0.6-10.7-0.2 0-0.5 0.1-1-0.1-1.1-0.2 0.5-0.8 0.3-0.7 0.3-1.9-1.3-3.8-2.1-5.8-3.2-1.8 0.2-3.5-0.7-4-1.2-1.4-1.3-3-0.6-4.3-0.9-2.8-0.7-3.8-3.6-4.1-5.6-0.2-1-1-1.4-1.3-1.3-1.3-4.2-3.3-8-4.9-11.9-0.4-1-0.3-2-0.3-3.1 0.5 0.2 1 0.1 0.9-0.6-0.5-3.3-1.7-5.8-3-8.2 0.7-3.4 0.8-7.4 2.4-10.4 1.4-2.7 4-4.1 5.8-6.4 0.6-0.8 0.6-1.9 1.2-2.6 2-2 4-4.1 6.2-5.9 1-0.8 2.2 0 3.7-0.3 0.5-1.8 2.5-3.4 4.4-2.9 0.8 0.2 2.4-1.9 2.9-2.1 0.8-0.3 0.4 0.8 0.4 1.5 1.9-1.5 4.5-2.3 6.9-3.2" fill="black" fill-rule="nonzero" stroke="none" stroke-width="1" stroke-linecap="butt" stroke-linejoin="miter" stroke-miterlimit="10" stroke-dasharray="" stroke-dashoffset="0" font-family="none" font-weight="none" font-size="none" text-anchor="none" style="mix-blend-mode: normal"></path></g><g transform="matrix(1,0,0,1,64,109.12864396460178)"><svg viewBox="0 0 192 141.74271207079644" height="141.74271207079644" width="192"><g><svg viewBox="0 0 192 141.74271207079644" height="141.74271207079644" width="192"><g><svg viewBox="0 0 192 141.74271207079644" height="141.74271207079644" width="192"><g transform="matrix(1,0,0,1,0,85.67191561061946)"><svg viewBox="0 0 192 56.070796460176986" height="56.070796460176986" width="192"><g id="SvgjsG1529"><svg viewBox="0 0 192 56.070796460176986" height="56.070796460176986" width="192" id="SvgjsSvg1528"><g><svg viewBox="0 0 192 56.070796460176986" height="56.070796460176986" width="192"><g transform="matrix(1,0,0,1,0,0)"><svg width="192" viewBox="2.4 -32.5 112.99 33" height="56.070796460176986" data-palette-color="url(#c81b2a60-f88d-4fca-847c-564e5d239b27)"></svg></g></svg></g></svg></g></svg></g><g transform="matrix(1,0,0,1,74.94224345840254,0)"><svg viewBox="0 0 42.11551308319492 77.4898407079646" height="77.4898407079646" width="42.11551308319492"><g><svg xmlns="http://www.w3.org/2000/svg" data-name="Layer 1" viewBox="0 0 190.686 350.85" x="0" y="0" id="SvgjsSvg1527" width="42.11551308319492" height="77.4898407079646" class="icon-icon-0" data-fill-palette-color="accent"><path d="M181.936 350.85H8.75A8.76 8.76 0 0 1 0 342.1V329.478A24.8 24.8 0 0 1 3.137 318.257L88.472 177.749A5.41 5.41 0 0 0 88.474 173.101L3.14 32.607A24.8 24.8 0 0 1 0 21.382V8.75A8.76 8.76 0 0 1 8.75 0H181.936A8.76 8.76 0 0 1 190.686 8.75V29.19A8.76 8.76 0 0 1 181.936 37.94H53.765L124.128 153.212A24.6 24.6 0 0 1 127.283 164.433V186.817A24.6 24.6 0 0 1 124.12 198.042L53.767 312.9 181.937 312.92A8.76 8.76 0 0 1 190.686 321.67V342.1A8.76 8.76 0 0 1 181.935 350.85M8.75 7.5A1.265 1.265 0 0 0 7.5 8.75V21.382A17.6 17.6 0 0 0 9.553 28.716L94.883 169.204A12.77 12.77 0 0 1 94.88 181.646L9.55 322.148A17.6 17.6 0 0 0 7.5 329.478V342.1A1.265 1.265 0 0 0 8.75 343.35H181.936A1.265 1.265 0 0 0 183.186 342.1V321.67A1.265 1.265 0 0 0 181.936 320.42H52.061A6.253 6.253 0 0 1 46.477 310.444L117.722 194.126A17.4 17.4 0 0 0 119.782 186.816V164.434A17.4 17.4 0 0 0 117.728 157.119L46.465 40.41A6.258 6.258 0 0 1 52.06 30.44H181.936A1.265 1.265 0 0 0 183.186 29.19V8.75A1.265 1.265 0 0 0 181.936 7.5Z" fill="white"></path></svg></g></svg></g><g></g></svg></g></svg></g></svg></g></svg></g><defs><mask></mask></defs><mask><g id="SvgjsG1526"><svg viewBox="0 0 320 360" height="360" width="320"><g><svg></svg></g><g><svg viewBox="0 0 320 360" height="360" width="320"><g><path transform="translate(-74.99272,-51.79039) scale(4.65793,4.65793)" d="M20.6 59.9l0.8 1-0.4-1.3c-0.1-0.6-0.8 0.1-0.4 0.3M21.5 59.3c0.3 0.5 0.6 1 0.6 1.5 0 0.7 0.6 1 1.1 1.2-0.7-0.8-1.1-3-1.7-2.7M59.9 16.9c1.7 0 3.3-0.2 5.1 0.2 4.4 1.1 8.1 3.3 10.6 6.4l7 11.2c0.3 2.8 0.9 5.9 0.8 9.3 0.7 0 0.6-1 1.4-1.2-0.8 2-1.2 4.5-1.4 7.4-0.5-1.6 0-4 0.1-5.3-0.7 1.1-1.1 0.3-1.1-0.2 0.1-0.8-0.3-0.7-0.6-1-1.1-1-1.8-2.1-2.6-3.8 0.5-1.3 0.6-3.2-1-4.2-0.5-0.3-1.1-0.8-1.4-1.6-0.4-1.1-1.1-2.4-0.9-4.1 0.1-0.5-1.5 1.1-2.4 0.4-3.9-2.7-7.8-5.8-12.5-8.4-2.5 0-4.3-0.9-5.2-2-0.8-1-0.2-2.3 1-2.4 0.7 0 1.5-0.2 2.1 0.2 0.1-0.4 0.5-0.9 1-0.9M50 14.6l0.2 0.1c1 0.2 1.5 1.6 2.6 1.1 0 0.7 0.1 1.4-0.1 1.9-0.3 0.8-1.2 0.8-1.9 0.8-6.7-0.4-10.6 2.4-14.7 4.8-1.1 0.7-2.3 1.2-3.2 2.1-4.3 4-9 7.7-10.1 15.1l-0.9 8.2c-0.1 0.9-1.1 1.8-0.9 2.9l0.7 4.9c-0.7-0.7-1.1 0.2-0.9 0.6 0.1 0.3 0.5 1.3 1.1 0.4 0.8 1.5 1.6 4.4 2.7 5.7 3.4 4 7.8 7.6 11.4 11.2 0.9-0.2 1.6-0.2 1.8-0.8 0.3 0.6-0.3 1.2-0.8 1.3 1.6 1 3.4 1.9 5.8 2.1 3.1 0.2 6 0.7 8.7 1.4 1.4-0.4 2.8-0.6 4.3-0.7 0.5 0 0.8-0.8 1.4-1l0.1-1c0.6 0.9 0.5-0.3 0.1-0.9 0.7 0.6 0.9 1.1 1.2 1.5 0-0.3 0.8-1.4 0.8-0.1l0.2-1.3c0.3-0.2 0.4 1.1 0.7 0.2 0.3-0.9 0.9-0.2 1.5-0.5-0.2 0.4-0.1 1.2 0.6 0.7l0.8-0.7c0.5 1.2 1.3 0.7 1.7 0.5 4.4-2.8 8.8-6.1 13-9.4l-0.1 1.3 0.5-1.6c0.5 0.5 0.9 0.1 1.1-0.2 0.6-1 1.4-2 2.7-2.9-1.6 4.3-3.5 7.7-5.9 10.5l-1 1.2c0 0.7-0.2 1.6-1 1.7-0.4 0.1-1.2-0.2-1.8 0.4-0.3 0.4 0.7 1.2-0.1 0.6-0.7-0.5-1.4 0-2.2 0.2-0.6 0.2 0.4 0.8 0.6 1.2 0.2 0.4 0.4 0.8 0.3 1.3l-1.1-1.2c-1.3 0.7-2.1 2-3.2 3-0.5 0.4-0.3 1.1-0.3 1.7-0.7 0-1.5-0.2-1.9 0.2-0.3 0.4-0.2 1-0.2 1.6-1-0.1-1.1-1.6-2-1.3-0.9 0.2-1.9 0.3-2.7 0.8 0.6 1.2-1 0.5-0.8 0.7-1.5-0.9-2.8-1.6-4.4-1-3.4-1.1-7.6-0.6-10.7-0.2 0-0.5 0.1-1-0.1-1.1-0.2 0.5-0.8 0.3-0.7 0.3-1.9-1.3-3.8-2.1-5.8-3.2-1.8 0.2-3.5-0.7-4-1.2-1.4-1.3-3-0.6-4.3-0.9-2.8-0.7-3.8-3.6-4.1-5.6-0.2-1-1-1.4-1.3-1.3-1.3-4.2-3.3-8-4.9-11.9-0.4-1-0.3-2-0.3-3.1 0.5 0.2 1 0.1 0.9-0.6-0.5-3.3-1.7-5.8-3-8.2 0.7-3.4 0.8-7.4 2.4-10.4 1.4-2.7 4-4.1 5.8-6.4 0.6-0.8 0.6-1.9 1.2-2.6 2-2 4-4.1 6.2-5.9 1-0.8 2.2 0 3.7-0.3 0.5-1.8 2.5-3.4 4.4-2.9 0.8 0.2 2.4-1.9 2.9-2.1 0.8-0.3 0.4 0.8 0.4 1.5 1.9-1.5 4.5-2.3 6.9-3.2" fill="black" fill-rule="nonzero" stroke="none" stroke-width="1" stroke-linecap="butt" stroke-linejoin="miter" stroke-miterlimit="10" stroke-dasharray="" stroke-dashoffset="0" font-family="none" font-weight="none" font-size="none" text-anchor="none" style="mix-blend-mode: normal"></path></g><g transform="matrix(1,0,0,1,64,109.12864396460178)"><svg viewBox="0 0 192 141.74271207079644" height="141.74271207079644" width="192"><g><svg viewBox="0 0 192 141.74271207079644" height="141.74271207079644" width="192"><g><svg viewBox="0 0 192 141.74271207079644" height="141.74271207079644" width="192"><g transform="matrix(1,0,0,1,0,85.67191561061946)"><svg viewBox="0 0 192 56.070796460176986" height="56.070796460176986" width="192"><g id="SvgjsG1525"><svg viewBox="0 0 192 56.070796460176986" height="56.070796460176986" width="192" id="SvgjsSvg1524"><g><svg viewBox="0 0 192 56.070796460176986" height="56.070796460176986" width="192"><g transform="matrix(1,0,0,1,0,0)"><svg width="192" viewBox="2.4 -32.5 112.99 33" height="56.070796460176986" data-palette-color="url(#c81b2a60-f88d-4fca-847c-564e5d239b27)"><path d="M12.75-32.5L12.75-32.5Q14.3-32.5 15.33-32.33 16.35-32.15 17.43-31.85 18.5-31.55 20.1-31.15L20.1-31.15Q20.4-29.25 20.58-27.23 20.75-25.2 20.8-24.2L20.8-24.2Q20.85-23.95 20.45-23.83 20.05-23.7 19.8-23.7L19.8-23.7Q19.45-23.7 19.25-23.9L19.25-23.9Q19.15-24.8 18.65-26 18.15-27.2 17.28-28.3 16.4-29.4 15.18-30.13 13.95-30.85 12.4-30.85L12.4-30.85Q10.4-30.85 9.25-30 8.1-29.15 7.6-27.9 7.1-26.65 7.1-25.45L7.1-25.45Q7.1-23.5 8.13-22.2 9.15-20.9 10.73-19.9 12.3-18.9 13.9-17.85L13.9-17.85Q15.1-17.1 16.55-16.2 18-15.3 19.35-14.2 20.7-13.1 21.55-11.68 22.4-10.25 22.4-8.45L22.4-8.45Q22.4-5.8 20.93-3.78 19.45-1.75 17.13-0.63 14.8 0.5 12.2 0.5L12.2 0.5Q9.75 0.5 7.48-0.05 5.2-0.6 3.4-0.95L3.4-0.95Q3.1-2.4 2.88-4.05 2.65-5.7 2.53-6.95 2.4-8.2 2.4-8.5L2.4-8.5Q2.65-8.75 2.98-8.93 3.3-9.1 3.65-9.1L3.65-9.1Q4.1-9.1 4.2-8.65L4.2-8.65Q4.35-7.95 4.83-6.73 5.3-5.5 6.23-4.2 7.15-2.9 8.63-2.02 10.1-1.15 12.3-1.15L12.3-1.15Q14.65-1.15 16.4-2.73 18.15-4.3 18.15-7.15L18.15-7.15Q18.15-9.2 17.23-10.35 16.3-11.5 14.83-12.35 13.35-13.2 11.65-14.15L11.65-14.15Q9.8-15.25 7.83-16.57 5.85-17.9 4.5-19.7 3.15-21.5 3.15-23.95L3.15-23.95Q3.15-26.55 4.53-28.48 5.9-30.4 8.1-31.45 10.3-32.5 12.75-32.5ZM41.3-5.1L41.3-15.6Q41.3-15.65 41.3-15.8L41.3-15.8Q41.3-16.3 41.25-17.03 41.2-17.75 40.95-18.25L40.95-18.25Q40.6-18.95 39.65-19.1 38.7-19.25 38.2-19.25L38.2-19.25Q38.1-19.35 38.07-19.83 38.05-20.3 38.2-20.5L38.2-20.5Q40.1-20.6 41.85-20.85 43.6-21.1 44.9-21.5L44.9-21.5Q45.1-21.5 45.25-21 45.4-20.5 45.4-20.3L45.4-20.3Q45.25-20 45.17-19.1 45.1-18.2 45.1-17.15L45.1-17.15 45.1-6.9Q45.1-6.5 45.15-5.33 45.2-4.15 45.4-3.15L45.4-3.15Q45.55-2.55 46.52-2.45 47.5-2.35 48-2.3L48-2.3Q48.25-2.3 48.3-2.3L48.3-2.3Q48.4-2.25 48.42-2.05 48.45-1.85 48.45-1.75L48.45-1.75Q48.45-1.7 48.35-1.35 48.25-1 48.05-1L48.05-1Q46.8-0.95 45.32-0.6 43.85-0.25 42.8 0.08 41.75 0.4 41.7 0.4L41.7 0.4Q41.5 0.4 41.4 0.13 41.3-0.15 41.3-0.4L41.3-0.4 41.3-2.65Q41.3-2.85 41.25-2.88 41.2-2.9 41.2-2.9L41.2-2.9Q40.55-2.2 39.4-1.43 38.25-0.65 36.9-0.15 35.55 0.35 34.3 0.35L34.3 0.35Q32.35 0.35 31.15-0.58 29.95-1.5 29.3-2.98 28.65-4.45 28.42-6.15 28.2-7.85 28.2-9.4L28.2-9.4 28.2-15.6Q28.2-16.1 28.15-16.9 28.1-17.7 27.8-18.25L27.8-18.25Q27.45-18.95 26.5-19.1 25.55-19.25 25.05-19.25L25.05-19.25Q24.95-19.35 24.92-19.83 24.9-20.3 25.05-20.5L25.05-20.5Q26.95-20.6 28.7-20.85 30.45-21.1 31.75-21.5L31.75-21.5Q31.95-21.5 32.12-21.1 32.3-20.7 32.3-20.5L32.3-20.5Q32.15-20.2 32.05-19.2 31.95-18.2 31.95-17.15L31.95-17.15 31.95-9.95Q31.95-6.05 33.12-4.23 34.3-2.4 36.85-2.4L36.85-2.4Q37.95-2.4 38.95-2.83 39.95-3.25 40.62-3.9 41.3-4.55 41.3-5.1L41.3-5.1ZM64.94-21.4L64.94-21.4Q67.14-21.4 68.52-20.48 69.89-19.55 70.5-17.35L70.5-17.35Q72.09-18.8 74.02-20.1 75.94-21.4 77.69-21.4L77.69-21.4Q80.34-21.4 81.69-20.3 83.05-19.2 83.52-16.9 84-14.6 84-11.05L84-11.05 84-5.65Q84-4.55 84.02-3.6 84.05-2.65 84.25-2.05L84.25-2.05Q84.34-1.8 84.97-1.6 85.59-1.4 86.3-1.33 87-1.25 87.3-1.25L87.3-1.25Q87.44-1.05 87.47-0.55 87.5-0.05 87.3 0.15L87.3 0.15Q85.8 0.05 84.67-0.03 83.55-0.1 82.09-0.1L82.09-0.1Q80.69-0.1 79.55-0.03 78.39 0.05 76.89 0.15L76.89 0.15Q76.69-0.05 76.72-0.55 76.75-1.05 76.89-1.25L76.89-1.25Q77.19-1.25 77.92-1.33 78.64-1.4 79.3-1.6 79.94-1.8 80-2.05L80-2.05Q80.14-2.55 80.17-3.33 80.19-4.1 80.19-5.05L80.19-5.05Q80.19-5.2 80.19-5.35 80.19-5.5 80.19-5.65L80.19-5.65 80.19-10.9Q80.19-13.35 79.87-15.05 79.55-16.75 78.59-17.65 77.64-18.55 75.64-18.55L75.64-18.55Q74.44-18.55 73.34-17.93 72.25-17.3 71.55-16.63 70.84-15.95 70.84-15.75L70.84-15.75Q70.84-15.7 70.87-15.48 70.89-15.25 70.89-15.15L70.89-15.15Q71-14.45 71.05-13.4 71.09-12.35 71.09-11.65L71.09-11.65 71.09-5.65Q71.09-4.55 71.12-3.6 71.14-2.65 71.34-2.05L71.34-2.05Q71.44-1.8 72.07-1.6 72.69-1.4 73.39-1.33 74.09-1.25 74.39-1.25L74.39-1.25Q74.55-1.05 74.57-0.55 74.59-0.05 74.39 0.15L74.39 0.15Q72.89 0.05 71.77-0.03 70.64-0.1 69.19-0.1L69.19-0.1Q67.8-0.1 66.64-0.03 65.5 0.05 63.99 0.15L63.99 0.15Q63.8-0.05 63.82-0.55 63.84-1.05 63.99-1.25L63.99-1.25Q64.3-1.25 65.02-1.33 65.75-1.4 66.39-1.6 67.05-1.8 67.09-2.05L67.09-2.05Q67.3-2.65 67.32-3.6 67.34-4.55 67.34-5.65L67.34-5.65 67.34-10.65Q67.34-15.1 66.37-16.82 65.39-18.55 62.74-18.55L62.74-18.55Q61.64-18.55 60.59-18 59.55-17.45 58.87-16.82 58.2-16.2 58.2-15.85L58.2-15.85 58.2-5.65Q58.2-4.55 58.22-3.6 58.24-2.65 58.45-2.05L58.45-2.05Q58.55-1.8 59.17-1.6 59.8-1.4 60.49-1.33 61.2-1.25 61.49-1.25L61.49-1.25Q61.64-1.05 61.67-0.55 61.7-0.05 61.49 0.15L61.49 0.15Q59.99 0.05 58.87-0.03 57.74-0.1 56.3-0.1L56.3-0.1Q54.89-0.1 53.74-0.03 52.59 0.05 51.09 0.15L51.09 0.15Q50.89-0.05 50.92-0.55 50.95-1.05 51.09-1.25L51.09-1.25Q51.39-1.25 52.12-1.33 52.84-1.4 53.49-1.6 54.14-1.8 54.2-2.05L54.2-2.05Q54.39-2.65 54.42-3.6 54.45-4.55 54.45-5.65L54.45-5.65 54.45-14.55Q54.45-15.05 54.42-15.95 54.39-16.85 54.2-17.3L54.2-17.3Q54.05-17.75 53.34-17.93 52.64-18.1 51.95-18.13 51.24-18.15 51.05-18.15L51.05-18.15Q50.99-18.25 50.95-18.75 50.89-19.25 51.05-19.45L51.05-19.45Q52.95-19.7 54.74-20.2 56.55-20.7 57.99-21.5L57.99-21.5Q58.2-21.5 58.37-21.2 58.55-20.9 58.55-20.7L58.55-20.7Q58.55-20.55 58.47-20 58.39-19.45 58.32-18.9 58.24-18.35 58.24-18.15L58.24-18.15Q58.24-17.95 58.34-17.95L58.34-17.95Q58.39-17.95 58.49-18.05L58.49-18.05Q59.09-18.6 60.09-19.38 61.09-20.15 62.37-20.78 63.64-21.4 64.94-21.4ZM92.04-28.95L92.04-28.95Q92.04-29.95 92.77-30.68 93.49-31.4 94.49-31.4L94.49-31.4Q95.49-31.4 96.22-30.68 96.94-29.95 96.94-28.95L96.94-28.95Q96.94-27.95 96.22-27.23 95.49-26.5 94.49-26.5L94.49-26.5Q93.49-26.5 92.77-27.23 92.04-27.95 92.04-28.95ZM96.74-17.5L96.74-5.65Q96.74-4.55 96.77-3.6 96.79-2.65 96.99-2.05L96.99-2.05Q97.09-1.8 97.72-1.6 98.34-1.4 99.04-1.33 99.74-1.25 100.04-1.25L100.04-1.25Q100.19-1.05 100.22-0.55 100.24-0.05 100.04 0.15L100.04 0.15Q98.54 0.05 97.42-0.03 96.29-0.1 94.84-0.1L94.84-0.1Q93.44-0.1 92.29-0.03 91.14 0.05 89.64 0.15L89.64 0.15Q89.44-0.05 89.47-0.55 89.49-1.05 89.64-1.25L89.64-1.25Q89.94-1.25 90.67-1.33 91.39-1.4 92.04-1.6 92.69-1.8 92.74-2.05L92.74-2.05Q92.94-2.65 92.97-3.6 92.99-4.55 92.99-5.65L92.99-5.65 92.99-14.75Q92.99-15.25 92.97-16.05 92.94-16.85 92.74-17.3L92.74-17.3Q92.59-17.75 91.89-17.93 91.19-18.1 90.49-18.13 89.79-18.15 89.59-18.15L89.59-18.15Q89.54-18.25 89.49-18.75 89.44-19.25 89.59-19.45L89.59-19.45Q91.49-19.7 93.29-20.2 95.09-20.7 96.54-21.5L96.54-21.5Q96.74-21.5 96.92-21.2 97.09-20.9 97.09-20.7L97.09-20.7Q97.09-20.55 96.99-19.85 96.89-19.15 96.82-18.45 96.74-17.75 96.74-17.5L96.74-17.5ZM108.84-27.5L108.84-21.1 115.14-21.1Q115.39-21.1 115.39-20.55L115.39-20.55Q115.39-19.8 114.69-19.1L114.69-19.1 108.84-19.1 108.84-6.3Q108.84-2.3 112.09-2.3L112.09-2.3Q113.19-2.3 114.09-2.75 114.99-3.2 115.24-3.4L115.24-3.4Q115.39-3.35 115.39-3.1L115.39-3.1Q115.39-2.55 115.19-2.35L115.19-2.35Q114.84-1.95 114.12-1.3 113.39-0.65 112.39-0.15 111.39 0.35 110.19 0.35L110.19 0.35Q108.94 0.35 107.77-0.1 106.59-0.55 105.84-1.7 105.09-2.85 105.09-4.95L105.09-4.95 105.09-19.1 102.24-19.1Q102.14-19.1 102.09-19.28 102.04-19.45 102.04-19.55L102.04-19.55Q102.04-19.65 102.34-20.03 102.64-20.4 102.97-20.75 103.29-21.1 103.29-21.1L103.29-21.1 105.09-21.1 105.09-24.15Q105.59-24.7 106.27-25.43 106.94-26.15 107.49-26.78 108.04-27.4 108.09-27.45L108.09-27.45Q108.29-27.65 108.57-27.65 108.84-27.65 108.84-27.5L108.84-27.5Z" opacity="1" transform="matrix(1,0,0,1,0,0)" fill="black" class="wordmark-text-0" id="SvgjsPath1523"></path></svg></g></svg></g></svg></g></svg></g><g transform="matrix(1,0,0,1,74.94224345840254,0)"><svg viewBox="0 0 42.11551308319492 77.4898407079646" height="77.4898407079646" width="42.11551308319492"><g><svg xmlns="http://www.w3.org/2000/svg" data-name="Layer 1" viewBox="0 0 190.686 350.85" x="0" y="0" id="SvgjsSvg1522" width="42.11551308319492" height="77.4898407079646" class="icon-icon-0" data-fill-palette-color="accent"><path d="M181.936 350.85H8.75A8.76 8.76 0 0 1 0 342.1V329.478A24.8 24.8 0 0 1 3.137 318.257L88.472 177.749A5.41 5.41 0 0 0 88.474 173.101L3.14 32.607A24.8 24.8 0 0 1 0 21.382V8.75A8.76 8.76 0 0 1 8.75 0H181.936A8.76 8.76 0 0 1 190.686 8.75V29.19A8.76 8.76 0 0 1 181.936 37.94H53.765L124.128 153.212A24.6 24.6 0 0 1 127.283 164.433V186.817A24.6 24.6 0 0 1 124.12 198.042L53.767 312.9 181.937 312.92A8.76 8.76 0 0 1 190.686 321.67V342.1A8.76 8.76 0 0 1 181.935 350.85M8.75 7.5A1.265 1.265 0 0 0 7.5 8.75V21.382A17.6 17.6 0 0 0 9.553 28.716L94.883 169.204A12.77 12.77 0 0 1 94.88 181.646L9.55 322.148A17.6 17.6 0 0 0 7.5 329.478V342.1A1.265 1.265 0 0 0 8.75 343.35H181.936A1.265 1.265 0 0 0 183.186 342.1V321.67A1.265 1.265 0 0 0 181.936 320.42H52.061A6.253 6.253 0 0 1 46.477 310.444L117.722 194.126A17.4 17.4 0 0 0 119.782 186.816V164.434A17.4 17.4 0 0 0 117.728 157.119L46.465 40.41A6.258 6.258 0 0 1 52.06 30.44H181.936A1.265 1.265 0 0 0 183.186 29.19V8.75A1.265 1.265 0 0 0 181.936 7.5Z" fill="black"></path></svg></g></svg></g><g></g></svg></g></svg></g></svg></g></svg></g><defs><mask></mask></defs></svg><rect width="320" height="360" fill="black" stroke="none" visibility="hidden"></rect></g></mask></svg><rect width="320" height="360" fill="black" stroke="none" visibility="hidden"></rect></g></mask><linearGradient x1="0.054" x2="0.941" y1="0.5" y2="0.5" id="e791af19-0e70-4a72-81c5-ab201a5d5d7d"><stop stop-color="#864d25" offset="0"></stop><stop stop-color="#f1c4b3" offset="0.498"></stop><stop stop-color="#864d25" offset="1"></stop></linearGradient><rect width="320.000094" height="360" fill="url(#e791af19-0e70-4a72-81c5-ab201a5d5d7d)" mask="url(#4207ca3c-a8bd-459a-a689-5ed4769f78bf)" data-fill-palette-color="accent"></rect><mask id="00fb0d74-ab6f-496b-a7e1-cbf3e0b119ff"><g id="SvgjsG1548"><svg viewBox="0 0 320 360" height="360" width="320"><g><svg></svg></g><g><svg viewBox="0 0 320 360" height="360" width="320"><g><path transform="translate(-74.99272,-51.79039) scale(4.65793,4.65793)" d="M20.6 59.9l0.8 1-0.4-1.3c-0.1-0.6-0.8 0.1-0.4 0.3M21.5 59.3c0.3 0.5 0.6 1 0.6 1.5 0 0.7 0.6 1 1.1 1.2-0.7-0.8-1.1-3-1.7-2.7M59.9 16.9c1.7 0 3.3-0.2 5.1 0.2 4.4 1.1 8.1 3.3 10.6 6.4l7 11.2c0.3 2.8 0.9 5.9 0.8 9.3 0.7 0 0.6-1 1.4-1.2-0.8 2-1.2 4.5-1.4 7.4-0.5-1.6 0-4 0.1-5.3-0.7 1.1-1.1 0.3-1.1-0.2 0.1-0.8-0.3-0.7-0.6-1-1.1-1-1.8-2.1-2.6-3.8 0.5-1.3 0.6-3.2-1-4.2-0.5-0.3-1.1-0.8-1.4-1.6-0.4-1.1-1.1-2.4-0.9-4.1 0.1-0.5-1.5 1.1-2.4 0.4-3.9-2.7-7.8-5.8-12.5-8.4-2.5 0-4.3-0.9-5.2-2-0.8-1-0.2-2.3 1-2.4 0.7 0 1.5-0.2 2.1 0.2 0.1-0.4 0.5-0.9 1-0.9M50 14.6l0.2 0.1c1 0.2 1.5 1.6 2.6 1.1 0 0.7 0.1 1.4-0.1 1.9-0.3 0.8-1.2 0.8-1.9 0.8-6.7-0.4-10.6 2.4-14.7 4.8-1.1 0.7-2.3 1.2-3.2 2.1-4.3 4-9 7.7-10.1 15.1l-0.9 8.2c-0.1 0.9-1.1 1.8-0.9 2.9l0.7 4.9c-0.7-0.7-1.1 0.2-0.9 0.6 0.1 0.3 0.5 1.3 1.1 0.4 0.8 1.5 1.6 4.4 2.7 5.7 3.4 4 7.8 7.6 11.4 11.2 0.9-0.2 1.6-0.2 1.8-0.8 0.3 0.6-0.3 1.2-0.8 1.3 1.6 1 3.4 1.9 5.8 2.1 3.1 0.2 6 0.7 8.7 1.4 1.4-0.4 2.8-0.6 4.3-0.7 0.5 0 0.8-0.8 1.4-1l0.1-1c0.6 0.9 0.5-0.3 0.1-0.9 0.7 0.6 0.9 1.1 1.2 1.5 0-0.3 0.8-1.4 0.8-0.1l0.2-1.3c0.3-0.2 0.4 1.1 0.7 0.2 0.3-0.9 0.9-0.2 1.5-0.5-0.2 0.4-0.1 1.2 0.6 0.7l0.8-0.7c0.5 1.2 1.3 0.7 1.7 0.5 4.4-2.8 8.8-6.1 13-9.4l-0.1 1.3 0.5-1.6c0.5 0.5 0.9 0.1 1.1-0.2 0.6-1 1.4-2 2.7-2.9-1.6 4.3-3.5 7.7-5.9 10.5l-1 1.2c0 0.7-0.2 1.6-1 1.7-0.4 0.1-1.2-0.2-1.8 0.4-0.3 0.4 0.7 1.2-0.1 0.6-0.7-0.5-1.4 0-2.2 0.2-0.6 0.2 0.4 0.8 0.6 1.2 0.2 0.4 0.4 0.8 0.3 1.3l-1.1-1.2c-1.3 0.7-2.1 2-3.2 3-0.5 0.4-0.3 1.1-0.3 1.7-0.7 0-1.5-0.2-1.9 0.2-0.3 0.4-0.2 1-0.2 1.6-1-0.1-1.1-1.6-2-1.3-0.9 0.2-1.9 0.3-2.7 0.8 0.6 1.2-1 0.5-0.8 0.7-1.5-0.9-2.8-1.6-4.4-1-3.4-1.1-7.6-0.6-10.7-0.2 0-0.5 0.1-1-0.1-1.1-0.2 0.5-0.8 0.3-0.7 0.3-1.9-1.3-3.8-2.1-5.8-3.2-1.8 0.2-3.5-0.7-4-1.2-1.4-1.3-3-0.6-4.3-0.9-2.8-0.7-3.8-3.6-4.1-5.6-0.2-1-1-1.4-1.3-1.3-1.3-4.2-3.3-8-4.9-11.9-0.4-1-0.3-2-0.3-3.1 0.5 0.2 1 0.1 0.9-0.6-0.5-3.3-1.7-5.8-3-8.2 0.7-3.4 0.8-7.4 2.4-10.4 1.4-2.7 4-4.1 5.8-6.4 0.6-0.8 0.6-1.9 1.2-2.6 2-2 4-4.1 6.2-5.9 1-0.8 2.2 0 3.7-0.3 0.5-1.8 2.5-3.4 4.4-2.9 0.8 0.2 2.4-1.9 2.9-2.1 0.8-0.3 0.4 0.8 0.4 1.5 1.9-1.5 4.5-2.3 6.9-3.2" fill="white" fill-rule="nonzero" stroke="none" stroke-width="1" stroke-linecap="butt" stroke-linejoin="miter" stroke-miterlimit="10" stroke-dasharray="" stroke-dashoffset="0" font-family="none" font-weight="none" font-size="none" text-anchor="none" style="mix-blend-mode: normal"></path></g><g transform="matrix(1,0,0,1,64,109.12864396460178)"><svg viewBox="0 0 192 141.74271207079644" height="141.74271207079644" width="192"><g><svg viewBox="0 0 192 141.74271207079644" height="141.74271207079644" width="192"><g><svg viewBox="0 0 192 141.74271207079644" height="141.74271207079644" width="192"><g transform="matrix(1,0,0,1,0,85.67191561061946)"><svg viewBox="0 0 192 56.070796460176986" height="56.070796460176986" width="192"><g id="SvgjsG1547"><svg viewBox="0 0 192 56.070796460176986" height="56.070796460176986" width="192" id="SvgjsSvg1546"><g><svg viewBox="0 0 192 56.070796460176986" height="56.070796460176986" width="192"><g transform="matrix(1,0,0,1,0,0)"><svg width="192" viewBox="2.4 -32.5 112.99 33" height="56.070796460176986" data-palette-color="url(#c81b2a60-f88d-4fca-847c-564e5d239b27)"></svg></g></svg></g></svg></g></svg></g><g transform="matrix(1,0,0,1,74.94224345840254,0)"><svg viewBox="0 0 42.11551308319492 77.4898407079646" height="77.4898407079646" width="42.11551308319492"><g><svg xmlns="http://www.w3.org/2000/svg" data-name="Layer 1" viewBox="0 0 190.686 350.85" x="0" y="0" id="SvgjsSvg1545" width="42.11551308319492" height="77.4898407079646" class="icon-icon-0" data-fill-palette-color="accent"></svg></g></svg></g><g></g></svg></g></svg></g></svg></g></svg></g><defs><mask></mask></defs><mask><g id="SvgjsG1544"><svg viewBox="0 0 320 360" height="360" width="320"><g><svg></svg></g><g><svg viewBox="0 0 320 360" height="360" width="320"><g><path transform="translate(-74.99272,-51.79039) scale(4.65793,4.65793)" d="M20.6 59.9l0.8 1-0.4-1.3c-0.1-0.6-0.8 0.1-0.4 0.3M21.5 59.3c0.3 0.5 0.6 1 0.6 1.5 0 0.7 0.6 1 1.1 1.2-0.7-0.8-1.1-3-1.7-2.7M59.9 16.9c1.7 0 3.3-0.2 5.1 0.2 4.4 1.1 8.1 3.3 10.6 6.4l7 11.2c0.3 2.8 0.9 5.9 0.8 9.3 0.7 0 0.6-1 1.4-1.2-0.8 2-1.2 4.5-1.4 7.4-0.5-1.6 0-4 0.1-5.3-0.7 1.1-1.1 0.3-1.1-0.2 0.1-0.8-0.3-0.7-0.6-1-1.1-1-1.8-2.1-2.6-3.8 0.5-1.3 0.6-3.2-1-4.2-0.5-0.3-1.1-0.8-1.4-1.6-0.4-1.1-1.1-2.4-0.9-4.1 0.1-0.5-1.5 1.1-2.4 0.4-3.9-2.7-7.8-5.8-12.5-8.4-2.5 0-4.3-0.9-5.2-2-0.8-1-0.2-2.3 1-2.4 0.7 0 1.5-0.2 2.1 0.2 0.1-0.4 0.5-0.9 1-0.9M50 14.6l0.2 0.1c1 0.2 1.5 1.6 2.6 1.1 0 0.7 0.1 1.4-0.1 1.9-0.3 0.8-1.2 0.8-1.9 0.8-6.7-0.4-10.6 2.4-14.7 4.8-1.1 0.7-2.3 1.2-3.2 2.1-4.3 4-9 7.7-10.1 15.1l-0.9 8.2c-0.1 0.9-1.1 1.8-0.9 2.9l0.7 4.9c-0.7-0.7-1.1 0.2-0.9 0.6 0.1 0.3 0.5 1.3 1.1 0.4 0.8 1.5 1.6 4.4 2.7 5.7 3.4 4 7.8 7.6 11.4 11.2 0.9-0.2 1.6-0.2 1.8-0.8 0.3 0.6-0.3 1.2-0.8 1.3 1.6 1 3.4 1.9 5.8 2.1 3.1 0.2 6 0.7 8.7 1.4 1.4-0.4 2.8-0.6 4.3-0.7 0.5 0 0.8-0.8 1.4-1l0.1-1c0.6 0.9 0.5-0.3 0.1-0.9 0.7 0.6 0.9 1.1 1.2 1.5 0-0.3 0.8-1.4 0.8-0.1l0.2-1.3c0.3-0.2 0.4 1.1 0.7 0.2 0.3-0.9 0.9-0.2 1.5-0.5-0.2 0.4-0.1 1.2 0.6 0.7l0.8-0.7c0.5 1.2 1.3 0.7 1.7 0.5 4.4-2.8 8.8-6.1 13-9.4l-0.1 1.3 0.5-1.6c0.5 0.5 0.9 0.1 1.1-0.2 0.6-1 1.4-2 2.7-2.9-1.6 4.3-3.5 7.7-5.9 10.5l-1 1.2c0 0.7-0.2 1.6-1 1.7-0.4 0.1-1.2-0.2-1.8 0.4-0.3 0.4 0.7 1.2-0.1 0.6-0.7-0.5-1.4 0-2.2 0.2-0.6 0.2 0.4 0.8 0.6 1.2 0.2 0.4 0.4 0.8 0.3 1.3l-1.1-1.2c-1.3 0.7-2.1 2-3.2 3-0.5 0.4-0.3 1.1-0.3 1.7-0.7 0-1.5-0.2-1.9 0.2-0.3 0.4-0.2 1-0.2 1.6-1-0.1-1.1-1.6-2-1.3-0.9 0.2-1.9 0.3-2.7 0.8 0.6 1.2-1 0.5-0.8 0.7-1.5-0.9-2.8-1.6-4.4-1-3.4-1.1-7.6-0.6-10.7-0.2 0-0.5 0.1-1-0.1-1.1-0.2 0.5-0.8 0.3-0.7 0.3-1.9-1.3-3.8-2.1-5.8-3.2-1.8 0.2-3.5-0.7-4-1.2-1.4-1.3-3-0.6-4.3-0.9-2.8-0.7-3.8-3.6-4.1-5.6-0.2-1-1-1.4-1.3-1.3-1.3-4.2-3.3-8-4.9-11.9-0.4-1-0.3-2-0.3-3.1 0.5 0.2 1 0.1 0.9-0.6-0.5-3.3-1.7-5.8-3-8.2 0.7-3.4 0.8-7.4 2.4-10.4 1.4-2.7 4-4.1 5.8-6.4 0.6-0.8 0.6-1.9 1.2-2.6 2-2 4-4.1 6.2-5.9 1-0.8 2.2 0 3.7-0.3 0.5-1.8 2.5-3.4 4.4-2.9 0.8 0.2 2.4-1.9 2.9-2.1 0.8-0.3 0.4 0.8 0.4 1.5 1.9-1.5 4.5-2.3 6.9-3.2" fill="black" fill-rule="nonzero" stroke="none" stroke-width="1" stroke-linecap="butt" stroke-linejoin="miter" stroke-miterlimit="10" stroke-dasharray="" stroke-dashoffset="0" font-family="none" font-weight="none" font-size="none" text-anchor="none" style="mix-blend-mode: normal"></path></g><g transform="matrix(1,0,0,1,64,109.12864396460178)"><svg viewBox="0 0 192 141.74271207079644" height="141.74271207079644" width="192"><g><svg viewBox="0 0 192 141.74271207079644" height="141.74271207079644" width="192"><g><svg viewBox="0 0 192 141.74271207079644" height="141.74271207079644" width="192"><g transform="matrix(1,0,0,1,0,85.67191561061946)"><svg viewBox="0 0 192 56.070796460176986" height="56.070796460176986" width="192"><g id="SvgjsG1543"><svg viewBox="0 0 192 56.070796460176986" height="56.070796460176986" width="192" id="SvgjsSvg1542"><g><svg viewBox="0 0 192 56.070796460176986" height="56.070796460176986" width="192"><g transform="matrix(1,0,0,1,0,0)"><svg width="192" viewBox="2.4 -32.5 112.99 33" height="56.070796460176986" data-palette-color="url(#c81b2a60-f88d-4fca-847c-564e5d239b27)"><path d="M12.75-32.5L12.75-32.5Q14.3-32.5 15.33-32.33 16.35-32.15 17.43-31.85 18.5-31.55 20.1-31.15L20.1-31.15Q20.4-29.25 20.58-27.23 20.75-25.2 20.8-24.2L20.8-24.2Q20.85-23.95 20.45-23.83 20.05-23.7 19.8-23.7L19.8-23.7Q19.45-23.7 19.25-23.9L19.25-23.9Q19.15-24.8 18.65-26 18.15-27.2 17.28-28.3 16.4-29.4 15.18-30.13 13.95-30.85 12.4-30.85L12.4-30.85Q10.4-30.85 9.25-30 8.1-29.15 7.6-27.9 7.1-26.65 7.1-25.45L7.1-25.45Q7.1-23.5 8.13-22.2 9.15-20.9 10.73-19.9 12.3-18.9 13.9-17.85L13.9-17.85Q15.1-17.1 16.55-16.2 18-15.3 19.35-14.2 20.7-13.1 21.55-11.68 22.4-10.25 22.4-8.45L22.4-8.45Q22.4-5.8 20.93-3.78 19.45-1.75 17.13-0.63 14.8 0.5 12.2 0.5L12.2 0.5Q9.75 0.5 7.48-0.05 5.2-0.6 3.4-0.95L3.4-0.95Q3.1-2.4 2.88-4.05 2.65-5.7 2.53-6.95 2.4-8.2 2.4-8.5L2.4-8.5Q2.65-8.75 2.98-8.93 3.3-9.1 3.65-9.1L3.65-9.1Q4.1-9.1 4.2-8.65L4.2-8.65Q4.35-7.95 4.83-6.73 5.3-5.5 6.23-4.2 7.15-2.9 8.63-2.02 10.1-1.15 12.3-1.15L12.3-1.15Q14.65-1.15 16.4-2.73 18.15-4.3 18.15-7.15L18.15-7.15Q18.15-9.2 17.23-10.35 16.3-11.5 14.83-12.35 13.35-13.2 11.65-14.15L11.65-14.15Q9.8-15.25 7.83-16.57 5.85-17.9 4.5-19.7 3.15-21.5 3.15-23.95L3.15-23.95Q3.15-26.55 4.53-28.48 5.9-30.4 8.1-31.45 10.3-32.5 12.75-32.5ZM41.3-5.1L41.3-15.6Q41.3-15.65 41.3-15.8L41.3-15.8Q41.3-16.3 41.25-17.03 41.2-17.75 40.95-18.25L40.95-18.25Q40.6-18.95 39.65-19.1 38.7-19.25 38.2-19.25L38.2-19.25Q38.1-19.35 38.07-19.83 38.05-20.3 38.2-20.5L38.2-20.5Q40.1-20.6 41.85-20.85 43.6-21.1 44.9-21.5L44.9-21.5Q45.1-21.5 45.25-21 45.4-20.5 45.4-20.3L45.4-20.3Q45.25-20 45.17-19.1 45.1-18.2 45.1-17.15L45.1-17.15 45.1-6.9Q45.1-6.5 45.15-5.33 45.2-4.15 45.4-3.15L45.4-3.15Q45.55-2.55 46.52-2.45 47.5-2.35 48-2.3L48-2.3Q48.25-2.3 48.3-2.3L48.3-2.3Q48.4-2.25 48.42-2.05 48.45-1.85 48.45-1.75L48.45-1.75Q48.45-1.7 48.35-1.35 48.25-1 48.05-1L48.05-1Q46.8-0.95 45.32-0.6 43.85-0.25 42.8 0.08 41.75 0.4 41.7 0.4L41.7 0.4Q41.5 0.4 41.4 0.13 41.3-0.15 41.3-0.4L41.3-0.4 41.3-2.65Q41.3-2.85 41.25-2.88 41.2-2.9 41.2-2.9L41.2-2.9Q40.55-2.2 39.4-1.43 38.25-0.65 36.9-0.15 35.55 0.35 34.3 0.35L34.3 0.35Q32.35 0.35 31.15-0.58 29.95-1.5 29.3-2.98 28.65-4.45 28.42-6.15 28.2-7.85 28.2-9.4L28.2-9.4 28.2-15.6Q28.2-16.1 28.15-16.9 28.1-17.7 27.8-18.25L27.8-18.25Q27.45-18.95 26.5-19.1 25.55-19.25 25.05-19.25L25.05-19.25Q24.95-19.35 24.92-19.83 24.9-20.3 25.05-20.5L25.05-20.5Q26.95-20.6 28.7-20.85 30.45-21.1 31.75-21.5L31.75-21.5Q31.95-21.5 32.12-21.1 32.3-20.7 32.3-20.5L32.3-20.5Q32.15-20.2 32.05-19.2 31.95-18.2 31.95-17.15L31.95-17.15 31.95-9.95Q31.95-6.05 33.12-4.23 34.3-2.4 36.85-2.4L36.85-2.4Q37.95-2.4 38.95-2.83 39.95-3.25 40.62-3.9 41.3-4.55 41.3-5.1L41.3-5.1ZM64.94-21.4L64.94-21.4Q67.14-21.4 68.52-20.48 69.89-19.55 70.5-17.35L70.5-17.35Q72.09-18.8 74.02-20.1 75.94-21.4 77.69-21.4L77.69-21.4Q80.34-21.4 81.69-20.3 83.05-19.2 83.52-16.9 84-14.6 84-11.05L84-11.05 84-5.65Q84-4.55 84.02-3.6 84.05-2.65 84.25-2.05L84.25-2.05Q84.34-1.8 84.97-1.6 85.59-1.4 86.3-1.33 87-1.25 87.3-1.25L87.3-1.25Q87.44-1.05 87.47-0.55 87.5-0.05 87.3 0.15L87.3 0.15Q85.8 0.05 84.67-0.03 83.55-0.1 82.09-0.1L82.09-0.1Q80.69-0.1 79.55-0.03 78.39 0.05 76.89 0.15L76.89 0.15Q76.69-0.05 76.72-0.55 76.75-1.05 76.89-1.25L76.89-1.25Q77.19-1.25 77.92-1.33 78.64-1.4 79.3-1.6 79.94-1.8 80-2.05L80-2.05Q80.14-2.55 80.17-3.33 80.19-4.1 80.19-5.05L80.19-5.05Q80.19-5.2 80.19-5.35 80.19-5.5 80.19-5.65L80.19-5.65 80.19-10.9Q80.19-13.35 79.87-15.05 79.55-16.75 78.59-17.65 77.64-18.55 75.64-18.55L75.64-18.55Q74.44-18.55 73.34-17.93 72.25-17.3 71.55-16.63 70.84-15.95 70.84-15.75L70.84-15.75Q70.84-15.7 70.87-15.48 70.89-15.25 70.89-15.15L70.89-15.15Q71-14.45 71.05-13.4 71.09-12.35 71.09-11.65L71.09-11.65 71.09-5.65Q71.09-4.55 71.12-3.6 71.14-2.65 71.34-2.05L71.34-2.05Q71.44-1.8 72.07-1.6 72.69-1.4 73.39-1.33 74.09-1.25 74.39-1.25L74.39-1.25Q74.55-1.05 74.57-0.55 74.59-0.05 74.39 0.15L74.39 0.15Q72.89 0.05 71.77-0.03 70.64-0.1 69.19-0.1L69.19-0.1Q67.8-0.1 66.64-0.03 65.5 0.05 63.99 0.15L63.99 0.15Q63.8-0.05 63.82-0.55 63.84-1.05 63.99-1.25L63.99-1.25Q64.3-1.25 65.02-1.33 65.75-1.4 66.39-1.6 67.05-1.8 67.09-2.05L67.09-2.05Q67.3-2.65 67.32-3.6 67.34-4.55 67.34-5.65L67.34-5.65 67.34-10.65Q67.34-15.1 66.37-16.82 65.39-18.55 62.74-18.55L62.74-18.55Q61.64-18.55 60.59-18 59.55-17.45 58.87-16.82 58.2-16.2 58.2-15.85L58.2-15.85 58.2-5.65Q58.2-4.55 58.22-3.6 58.24-2.65 58.45-2.05L58.45-2.05Q58.55-1.8 59.17-1.6 59.8-1.4 60.49-1.33 61.2-1.25 61.49-1.25L61.49-1.25Q61.64-1.05 61.67-0.55 61.7-0.05 61.49 0.15L61.49 0.15Q59.99 0.05 58.87-0.03 57.74-0.1 56.3-0.1L56.3-0.1Q54.89-0.1 53.74-0.03 52.59 0.05 51.09 0.15L51.09 0.15Q50.89-0.05 50.92-0.55 50.95-1.05 51.09-1.25L51.09-1.25Q51.39-1.25 52.12-1.33 52.84-1.4 53.49-1.6 54.14-1.8 54.2-2.05L54.2-2.05Q54.39-2.65 54.42-3.6 54.45-4.55 54.45-5.65L54.45-5.65 54.45-14.55Q54.45-15.05 54.42-15.95 54.39-16.85 54.2-17.3L54.2-17.3Q54.05-17.75 53.34-17.93 52.64-18.1 51.95-18.13 51.24-18.15 51.05-18.15L51.05-18.15Q50.99-18.25 50.95-18.75 50.89-19.25 51.05-19.45L51.05-19.45Q52.95-19.7 54.74-20.2 56.55-20.7 57.99-21.5L57.99-21.5Q58.2-21.5 58.37-21.2 58.55-20.9 58.55-20.7L58.55-20.7Q58.55-20.55 58.47-20 58.39-19.45 58.32-18.9 58.24-18.35 58.24-18.15L58.24-18.15Q58.24-17.95 58.34-17.95L58.34-17.95Q58.39-17.95 58.49-18.05L58.49-18.05Q59.09-18.6 60.09-19.38 61.09-20.15 62.37-20.78 63.64-21.4 64.94-21.4ZM92.04-28.95L92.04-28.95Q92.04-29.95 92.77-30.68 93.49-31.4 94.49-31.4L94.49-31.4Q95.49-31.4 96.22-30.68 96.94-29.95 96.94-28.95L96.94-28.95Q96.94-27.95 96.22-27.23 95.49-26.5 94.49-26.5L94.49-26.5Q93.49-26.5 92.77-27.23 92.04-27.95 92.04-28.95ZM96.74-17.5L96.74-5.65Q96.74-4.55 96.77-3.6 96.79-2.65 96.99-2.05L96.99-2.05Q97.09-1.8 97.72-1.6 98.34-1.4 99.04-1.33 99.74-1.25 100.04-1.25L100.04-1.25Q100.19-1.05 100.22-0.55 100.24-0.05 100.04 0.15L100.04 0.15Q98.54 0.05 97.42-0.03 96.29-0.1 94.84-0.1L94.84-0.1Q93.44-0.1 92.29-0.03 91.14 0.05 89.64 0.15L89.64 0.15Q89.44-0.05 89.47-0.55 89.49-1.05 89.64-1.25L89.64-1.25Q89.94-1.25 90.67-1.33 91.39-1.4 92.04-1.6 92.69-1.8 92.74-2.05L92.74-2.05Q92.94-2.65 92.97-3.6 92.99-4.55 92.99-5.65L92.99-5.65 92.99-14.75Q92.99-15.25 92.97-16.05 92.94-16.85 92.74-17.3L92.74-17.3Q92.59-17.75 91.89-17.93 91.19-18.1 90.49-18.13 89.79-18.15 89.59-18.15L89.59-18.15Q89.54-18.25 89.49-18.75 89.44-19.25 89.59-19.45L89.59-19.45Q91.49-19.7 93.29-20.2 95.09-20.7 96.54-21.5L96.54-21.5Q96.74-21.5 96.92-21.2 97.09-20.9 97.09-20.7L97.09-20.7Q97.09-20.55 96.99-19.85 96.89-19.15 96.82-18.45 96.74-17.75 96.74-17.5L96.74-17.5ZM108.84-27.5L108.84-21.1 115.14-21.1Q115.39-21.1 115.39-20.55L115.39-20.55Q115.39-19.8 114.69-19.1L114.69-19.1 108.84-19.1 108.84-6.3Q108.84-2.3 112.09-2.3L112.09-2.3Q113.19-2.3 114.09-2.75 114.99-3.2 115.24-3.4L115.24-3.4Q115.39-3.35 115.39-3.1L115.39-3.1Q115.39-2.55 115.19-2.35L115.19-2.35Q114.84-1.95 114.12-1.3 113.39-0.65 112.39-0.15 111.39 0.35 110.19 0.35L110.19 0.35Q108.94 0.35 107.77-0.1 106.59-0.55 105.84-1.7 105.09-2.85 105.09-4.95L105.09-4.95 105.09-19.1 102.24-19.1Q102.14-19.1 102.09-19.28 102.04-19.45 102.04-19.55L102.04-19.55Q102.04-19.65 102.34-20.03 102.64-20.4 102.97-20.75 103.29-21.1 103.29-21.1L103.29-21.1 105.09-21.1 105.09-24.15Q105.59-24.7 106.27-25.43 106.94-26.15 107.49-26.78 108.04-27.4 108.09-27.45L108.09-27.45Q108.29-27.65 108.57-27.65 108.84-27.65 108.84-27.5L108.84-27.5Z" opacity="1" transform="matrix(1,0,0,1,0,0)" fill="black" class="wordmark-text-0" id="SvgjsPath1541"></path></svg></g></svg></g></svg></g></svg></g><g transform="matrix(1,0,0,1,74.94224345840254,0)"><svg viewBox="0 0 42.11551308319492 77.4898407079646" height="77.4898407079646" width="42.11551308319492"><g><svg xmlns="http://www.w3.org/2000/svg" data-name="Layer 1" viewBox="0 0 190.686 350.85" x="0" y="0" id="SvgjsSvg1540" width="42.11551308319492" height="77.4898407079646" class="icon-icon-0" data-fill-palette-color="accent"><path d="M181.936 350.85H8.75A8.76 8.76 0 0 1 0 342.1V329.478A24.8 24.8 0 0 1 3.137 318.257L88.472 177.749A5.41 5.41 0 0 0 88.474 173.101L3.14 32.607A24.8 24.8 0 0 1 0 21.382V8.75A8.76 8.76 0 0 1 8.75 0H181.936A8.76 8.76 0 0 1 190.686 8.75V29.19A8.76 8.76 0 0 1 181.936 37.94H53.765L124.128 153.212A24.6 24.6 0 0 1 127.283 164.433V186.817A24.6 24.6 0 0 1 124.12 198.042L53.767 312.9 181.937 312.92A8.76 8.76 0 0 1 190.686 321.67V342.1A8.76 8.76 0 0 1 181.935 350.85M8.75 7.5A1.265 1.265 0 0 0 7.5 8.75V21.382A17.6 17.6 0 0 0 9.553 28.716L94.883 169.204A12.77 12.77 0 0 1 94.88 181.646L9.55 322.148A17.6 17.6 0 0 0 7.5 329.478V342.1A1.265 1.265 0 0 0 8.75 343.35H181.936A1.265 1.265 0 0 0 183.186 342.1V321.67A1.265 1.265 0 0 0 181.936 320.42H52.061A6.253 6.253 0 0 1 46.477 310.444L117.722 194.126A17.4 17.4 0 0 0 119.782 186.816V164.434A17.4 17.4 0 0 0 117.728 157.119L46.465 40.41A6.258 6.258 0 0 1 52.06 30.44H181.936A1.265 1.265 0 0 0 183.186 29.19V8.75A1.265 1.265 0 0 0 181.936 7.5Z" fill="black"></path></svg></g></svg></g><g></g></svg></g></svg></g></svg></g></svg></g><defs><mask></mask></defs></svg><rect width="320" height="360" fill="black" stroke="none" visibility="hidden"></rect></g></mask><mask><g id="SvgjsG1539"><svg viewBox="0 0 320 360" height="360" width="320"><g><svg></svg></g><g><svg viewBox="0 0 320 360" height="360" width="320"><g><path transform="translate(-74.99272,-51.79039) scale(4.65793,4.65793)" d="M20.6 59.9l0.8 1-0.4-1.3c-0.1-0.6-0.8 0.1-0.4 0.3M21.5 59.3c0.3 0.5 0.6 1 0.6 1.5 0 0.7 0.6 1 1.1 1.2-0.7-0.8-1.1-3-1.7-2.7M59.9 16.9c1.7 0 3.3-0.2 5.1 0.2 4.4 1.1 8.1 3.3 10.6 6.4l7 11.2c0.3 2.8 0.9 5.9 0.8 9.3 0.7 0 0.6-1 1.4-1.2-0.8 2-1.2 4.5-1.4 7.4-0.5-1.6 0-4 0.1-5.3-0.7 1.1-1.1 0.3-1.1-0.2 0.1-0.8-0.3-0.7-0.6-1-1.1-1-1.8-2.1-2.6-3.8 0.5-1.3 0.6-3.2-1-4.2-0.5-0.3-1.1-0.8-1.4-1.6-0.4-1.1-1.1-2.4-0.9-4.1 0.1-0.5-1.5 1.1-2.4 0.4-3.9-2.7-7.8-5.8-12.5-8.4-2.5 0-4.3-0.9-5.2-2-0.8-1-0.2-2.3 1-2.4 0.7 0 1.5-0.2 2.1 0.2 0.1-0.4 0.5-0.9 1-0.9M50 14.6l0.2 0.1c1 0.2 1.5 1.6 2.6 1.1 0 0.7 0.1 1.4-0.1 1.9-0.3 0.8-1.2 0.8-1.9 0.8-6.7-0.4-10.6 2.4-14.7 4.8-1.1 0.7-2.3 1.2-3.2 2.1-4.3 4-9 7.7-10.1 15.1l-0.9 8.2c-0.1 0.9-1.1 1.8-0.9 2.9l0.7 4.9c-0.7-0.7-1.1 0.2-0.9 0.6 0.1 0.3 0.5 1.3 1.1 0.4 0.8 1.5 1.6 4.4 2.7 5.7 3.4 4 7.8 7.6 11.4 11.2 0.9-0.2 1.6-0.2 1.8-0.8 0.3 0.6-0.3 1.2-0.8 1.3 1.6 1 3.4 1.9 5.8 2.1 3.1 0.2 6 0.7 8.7 1.4 1.4-0.4 2.8-0.6 4.3-0.7 0.5 0 0.8-0.8 1.4-1l0.1-1c0.6 0.9 0.5-0.3 0.1-0.9 0.7 0.6 0.9 1.1 1.2 1.5 0-0.3 0.8-1.4 0.8-0.1l0.2-1.3c0.3-0.2 0.4 1.1 0.7 0.2 0.3-0.9 0.9-0.2 1.5-0.5-0.2 0.4-0.1 1.2 0.6 0.7l0.8-0.7c0.5 1.2 1.3 0.7 1.7 0.5 4.4-2.8 8.8-6.1 13-9.4l-0.1 1.3 0.5-1.6c0.5 0.5 0.9 0.1 1.1-0.2 0.6-1 1.4-2 2.7-2.9-1.6 4.3-3.5 7.7-5.9 10.5l-1 1.2c0 0.7-0.2 1.6-1 1.7-0.4 0.1-1.2-0.2-1.8 0.4-0.3 0.4 0.7 1.2-0.1 0.6-0.7-0.5-1.4 0-2.2 0.2-0.6 0.2 0.4 0.8 0.6 1.2 0.2 0.4 0.4 0.8 0.3 1.3l-1.1-1.2c-1.3 0.7-2.1 2-3.2 3-0.5 0.4-0.3 1.1-0.3 1.7-0.7 0-1.5-0.2-1.9 0.2-0.3 0.4-0.2 1-0.2 1.6-1-0.1-1.1-1.6-2-1.3-0.9 0.2-1.9 0.3-2.7 0.8 0.6 1.2-1 0.5-0.8 0.7-1.5-0.9-2.8-1.6-4.4-1-3.4-1.1-7.6-0.6-10.7-0.2 0-0.5 0.1-1-0.1-1.1-0.2 0.5-0.8 0.3-0.7 0.3-1.9-1.3-3.8-2.1-5.8-3.2-1.8 0.2-3.5-0.7-4-1.2-1.4-1.3-3-0.6-4.3-0.9-2.8-0.7-3.8-3.6-4.1-5.6-0.2-1-1-1.4-1.3-1.3-1.3-4.2-3.3-8-4.9-11.9-0.4-1-0.3-2-0.3-3.1 0.5 0.2 1 0.1 0.9-0.6-0.5-3.3-1.7-5.8-3-8.2 0.7-3.4 0.8-7.4 2.4-10.4 1.4-2.7 4-4.1 5.8-6.4 0.6-0.8 0.6-1.9 1.2-2.6 2-2 4-4.1 6.2-5.9 1-0.8 2.2 0 3.7-0.3 0.5-1.8 2.5-3.4 4.4-2.9 0.8 0.2 2.4-1.9 2.9-2.1 0.8-0.3 0.4 0.8 0.4 1.5 1.9-1.5 4.5-2.3 6.9-3.2" fill="black" fill-rule="nonzero" stroke="none" stroke-width="1" stroke-linecap="butt" stroke-linejoin="miter" stroke-miterlimit="10" stroke-dasharray="" stroke-dashoffset="0" font-family="none" font-weight="none" font-size="none" text-anchor="none" style="mix-blend-mode: normal"></path></g><g transform="matrix(1,0,0,1,64,109.12864396460178)"><svg viewBox="0 0 192 141.74271207079644" height="141.74271207079644" width="192"><g><svg viewBox="0 0 192 141.74271207079644" height="141.74271207079644" width="192"><g><svg viewBox="0 0 192 141.74271207079644" height="141.74271207079644" width="192"><g transform="matrix(1,0,0,1,0,85.67191561061946)"><svg viewBox="0 0 192 56.070796460176986" height="56.070796460176986" width="192"><g id="SvgjsG1538"><svg viewBox="0 0 192 56.070796460176986" height="56.070796460176986" width="192" id="SvgjsSvg1537"><g><svg viewBox="0 0 192 56.070796460176986" height="56.070796460176986" width="192"><g transform="matrix(1,0,0,1,0,0)"><svg width="192" viewBox="2.4 -32.5 112.99 33" height="56.070796460176986" data-palette-color="url(#c81b2a60-f88d-4fca-847c-564e5d239b27)"></svg></g></svg></g></svg></g></svg></g><g transform="matrix(1,0,0,1,74.94224345840254,0)"><svg viewBox="0 0 42.11551308319492 77.4898407079646" height="77.4898407079646" width="42.11551308319492"><g><svg xmlns="http://www.w3.org/2000/svg" data-name="Layer 1" viewBox="0 0 190.686 350.85" x="0" y="0" id="SvgjsSvg1536" width="42.11551308319492" height="77.4898407079646" class="icon-icon-0" data-fill-palette-color="accent"><path d="M181.936 350.85H8.75A8.76 8.76 0 0 1 0 342.1V329.478A24.8 24.8 0 0 1 3.137 318.257L88.472 177.749A5.41 5.41 0 0 0 88.474 173.101L3.14 32.607A24.8 24.8 0 0 1 0 21.382V8.75A8.76 8.76 0 0 1 8.75 0H181.936A8.76 8.76 0 0 1 190.686 8.75V29.19A8.76 8.76 0 0 1 181.936 37.94H53.765L124.128 153.212A24.6 24.6 0 0 1 127.283 164.433V186.817A24.6 24.6 0 0 1 124.12 198.042L53.767 312.9 181.937 312.92A8.76 8.76 0 0 1 190.686 321.67V342.1A8.76 8.76 0 0 1 181.935 350.85M8.75 7.5A1.265 1.265 0 0 0 7.5 8.75V21.382A17.6 17.6 0 0 0 9.553 28.716L94.883 169.204A12.77 12.77 0 0 1 94.88 181.646L9.55 322.148A17.6 17.6 0 0 0 7.5 329.478V342.1A1.265 1.265 0 0 0 8.75 343.35H181.936A1.265 1.265 0 0 0 183.186 342.1V321.67A1.265 1.265 0 0 0 181.936 320.42H52.061A6.253 6.253 0 0 1 46.477 310.444L117.722 194.126A17.4 17.4 0 0 0 119.782 186.816V164.434A17.4 17.4 0 0 0 117.728 157.119L46.465 40.41A6.258 6.258 0 0 1 52.06 30.44H181.936A1.265 1.265 0 0 0 183.186 29.19V8.75A1.265 1.265 0 0 0 181.936 7.5Z" fill="black"></path></svg></g></svg></g><g></g></svg></g></svg></g></svg></g></svg></g><defs><mask></mask></defs><mask><g id="SvgjsG1535"><svg viewBox="0 0 320 360" height="360" width="320"><g><svg></svg></g><g><svg viewBox="0 0 320 360" height="360" width="320"><g><path transform="translate(-74.99272,-51.79039) scale(4.65793,4.65793)" d="M20.6 59.9l0.8 1-0.4-1.3c-0.1-0.6-0.8 0.1-0.4 0.3M21.5 59.3c0.3 0.5 0.6 1 0.6 1.5 0 0.7 0.6 1 1.1 1.2-0.7-0.8-1.1-3-1.7-2.7M59.9 16.9c1.7 0 3.3-0.2 5.1 0.2 4.4 1.1 8.1 3.3 10.6 6.4l7 11.2c0.3 2.8 0.9 5.9 0.8 9.3 0.7 0 0.6-1 1.4-1.2-0.8 2-1.2 4.5-1.4 7.4-0.5-1.6 0-4 0.1-5.3-0.7 1.1-1.1 0.3-1.1-0.2 0.1-0.8-0.3-0.7-0.6-1-1.1-1-1.8-2.1-2.6-3.8 0.5-1.3 0.6-3.2-1-4.2-0.5-0.3-1.1-0.8-1.4-1.6-0.4-1.1-1.1-2.4-0.9-4.1 0.1-0.5-1.5 1.1-2.4 0.4-3.9-2.7-7.8-5.8-12.5-8.4-2.5 0-4.3-0.9-5.2-2-0.8-1-0.2-2.3 1-2.4 0.7 0 1.5-0.2 2.1 0.2 0.1-0.4 0.5-0.9 1-0.9M50 14.6l0.2 0.1c1 0.2 1.5 1.6 2.6 1.1 0 0.7 0.1 1.4-0.1 1.9-0.3 0.8-1.2 0.8-1.9 0.8-6.7-0.4-10.6 2.4-14.7 4.8-1.1 0.7-2.3 1.2-3.2 2.1-4.3 4-9 7.7-10.1 15.1l-0.9 8.2c-0.1 0.9-1.1 1.8-0.9 2.9l0.7 4.9c-0.7-0.7-1.1 0.2-0.9 0.6 0.1 0.3 0.5 1.3 1.1 0.4 0.8 1.5 1.6 4.4 2.7 5.7 3.4 4 7.8 7.6 11.4 11.2 0.9-0.2 1.6-0.2 1.8-0.8 0.3 0.6-0.3 1.2-0.8 1.3 1.6 1 3.4 1.9 5.8 2.1 3.1 0.2 6 0.7 8.7 1.4 1.4-0.4 2.8-0.6 4.3-0.7 0.5 0 0.8-0.8 1.4-1l0.1-1c0.6 0.9 0.5-0.3 0.1-0.9 0.7 0.6 0.9 1.1 1.2 1.5 0-0.3 0.8-1.4 0.8-0.1l0.2-1.3c0.3-0.2 0.4 1.1 0.7 0.2 0.3-0.9 0.9-0.2 1.5-0.5-0.2 0.4-0.1 1.2 0.6 0.7l0.8-0.7c0.5 1.2 1.3 0.7 1.7 0.5 4.4-2.8 8.8-6.1 13-9.4l-0.1 1.3 0.5-1.6c0.5 0.5 0.9 0.1 1.1-0.2 0.6-1 1.4-2 2.7-2.9-1.6 4.3-3.5 7.7-5.9 10.5l-1 1.2c0 0.7-0.2 1.6-1 1.7-0.4 0.1-1.2-0.2-1.8 0.4-0.3 0.4 0.7 1.2-0.1 0.6-0.7-0.5-1.4 0-2.2 0.2-0.6 0.2 0.4 0.8 0.6 1.2 0.2 0.4 0.4 0.8 0.3 1.3l-1.1-1.2c-1.3 0.7-2.1 2-3.2 3-0.5 0.4-0.3 1.1-0.3 1.7-0.7 0-1.5-0.2-1.9 0.2-0.3 0.4-0.2 1-0.2 1.6-1-0.1-1.1-1.6-2-1.3-0.9 0.2-1.9 0.3-2.7 0.8 0.6 1.2-1 0.5-0.8 0.7-1.5-0.9-2.8-1.6-4.4-1-3.4-1.1-7.6-0.6-10.7-0.2 0-0.5 0.1-1-0.1-1.1-0.2 0.5-0.8 0.3-0.7 0.3-1.9-1.3-3.8-2.1-5.8-3.2-1.8 0.2-3.5-0.7-4-1.2-1.4-1.3-3-0.6-4.3-0.9-2.8-0.7-3.8-3.6-4.1-5.6-0.2-1-1-1.4-1.3-1.3-1.3-4.2-3.3-8-4.9-11.9-0.4-1-0.3-2-0.3-3.1 0.5 0.2 1 0.1 0.9-0.6-0.5-3.3-1.7-5.8-3-8.2 0.7-3.4 0.8-7.4 2.4-10.4 1.4-2.7 4-4.1 5.8-6.4 0.6-0.8 0.6-1.9 1.2-2.6 2-2 4-4.1 6.2-5.9 1-0.8 2.2 0 3.7-0.3 0.5-1.8 2.5-3.4 4.4-2.9 0.8 0.2 2.4-1.9 2.9-2.1 0.8-0.3 0.4 0.8 0.4 1.5 1.9-1.5 4.5-2.3 6.9-3.2" fill="black" fill-rule="nonzero" stroke="none" stroke-width="1" stroke-linecap="butt" stroke-linejoin="miter" stroke-miterlimit="10" stroke-dasharray="" stroke-dashoffset="0" font-family="none" font-weight="none" font-size="none" text-anchor="none" style="mix-blend-mode: normal"></path></g><g transform="matrix(1,0,0,1,64,109.12864396460178)"><svg viewBox="0 0 192 141.74271207079644" height="141.74271207079644" width="192"><g><svg viewBox="0 0 192 141.74271207079644" height="141.74271207079644" width="192"><g><svg viewBox="0 0 192 141.74271207079644" height="141.74271207079644" width="192"><g transform="matrix(1,0,0,1,0,85.67191561061946)"><svg viewBox="0 0 192 56.070796460176986" height="56.070796460176986" width="192"><g id="SvgjsG1534"><svg viewBox="0 0 192 56.070796460176986" height="56.070796460176986" width="192" id="SvgjsSvg1533"><g><svg viewBox="0 0 192 56.070796460176986" height="56.070796460176986" width="192"><g transform="matrix(1,0,0,1,0,0)"><svg width="192" viewBox="2.4 -32.5 112.99 33" height="56.070796460176986" data-palette-color="url(#c81b2a60-f88d-4fca-847c-564e5d239b27)"><path d="M12.75-32.5L12.75-32.5Q14.3-32.5 15.33-32.33 16.35-32.15 17.43-31.85 18.5-31.55 20.1-31.15L20.1-31.15Q20.4-29.25 20.58-27.23 20.75-25.2 20.8-24.2L20.8-24.2Q20.85-23.95 20.45-23.83 20.05-23.7 19.8-23.7L19.8-23.7Q19.45-23.7 19.25-23.9L19.25-23.9Q19.15-24.8 18.65-26 18.15-27.2 17.28-28.3 16.4-29.4 15.18-30.13 13.95-30.85 12.4-30.85L12.4-30.85Q10.4-30.85 9.25-30 8.1-29.15 7.6-27.9 7.1-26.65 7.1-25.45L7.1-25.45Q7.1-23.5 8.13-22.2 9.15-20.9 10.73-19.9 12.3-18.9 13.9-17.85L13.9-17.85Q15.1-17.1 16.55-16.2 18-15.3 19.35-14.2 20.7-13.1 21.55-11.68 22.4-10.25 22.4-8.45L22.4-8.45Q22.4-5.8 20.93-3.78 19.45-1.75 17.13-0.63 14.8 0.5 12.2 0.5L12.2 0.5Q9.75 0.5 7.48-0.05 5.2-0.6 3.4-0.95L3.4-0.95Q3.1-2.4 2.88-4.05 2.65-5.7 2.53-6.95 2.4-8.2 2.4-8.5L2.4-8.5Q2.65-8.75 2.98-8.93 3.3-9.1 3.65-9.1L3.65-9.1Q4.1-9.1 4.2-8.65L4.2-8.65Q4.35-7.95 4.83-6.73 5.3-5.5 6.23-4.2 7.15-2.9 8.63-2.02 10.1-1.15 12.3-1.15L12.3-1.15Q14.65-1.15 16.4-2.73 18.15-4.3 18.15-7.15L18.15-7.15Q18.15-9.2 17.23-10.35 16.3-11.5 14.83-12.35 13.35-13.2 11.65-14.15L11.65-14.15Q9.8-15.25 7.83-16.57 5.85-17.9 4.5-19.7 3.15-21.5 3.15-23.95L3.15-23.95Q3.15-26.55 4.53-28.48 5.9-30.4 8.1-31.45 10.3-32.5 12.75-32.5ZM41.3-5.1L41.3-15.6Q41.3-15.65 41.3-15.8L41.3-15.8Q41.3-16.3 41.25-17.03 41.2-17.75 40.95-18.25L40.95-18.25Q40.6-18.95 39.65-19.1 38.7-19.25 38.2-19.25L38.2-19.25Q38.1-19.35 38.07-19.83 38.05-20.3 38.2-20.5L38.2-20.5Q40.1-20.6 41.85-20.85 43.6-21.1 44.9-21.5L44.9-21.5Q45.1-21.5 45.25-21 45.4-20.5 45.4-20.3L45.4-20.3Q45.25-20 45.17-19.1 45.1-18.2 45.1-17.15L45.1-17.15 45.1-6.9Q45.1-6.5 45.15-5.33 45.2-4.15 45.4-3.15L45.4-3.15Q45.55-2.55 46.52-2.45 47.5-2.35 48-2.3L48-2.3Q48.25-2.3 48.3-2.3L48.3-2.3Q48.4-2.25 48.42-2.05 48.45-1.85 48.45-1.75L48.45-1.75Q48.45-1.7 48.35-1.35 48.25-1 48.05-1L48.05-1Q46.8-0.95 45.32-0.6 43.85-0.25 42.8 0.08 41.75 0.4 41.7 0.4L41.7 0.4Q41.5 0.4 41.4 0.13 41.3-0.15 41.3-0.4L41.3-0.4 41.3-2.65Q41.3-2.85 41.25-2.88 41.2-2.9 41.2-2.9L41.2-2.9Q40.55-2.2 39.4-1.43 38.25-0.65 36.9-0.15 35.55 0.35 34.3 0.35L34.3 0.35Q32.35 0.35 31.15-0.58 29.95-1.5 29.3-2.98 28.65-4.45 28.42-6.15 28.2-7.85 28.2-9.4L28.2-9.4 28.2-15.6Q28.2-16.1 28.15-16.9 28.1-17.7 27.8-18.25L27.8-18.25Q27.45-18.95 26.5-19.1 25.55-19.25 25.05-19.25L25.05-19.25Q24.95-19.35 24.92-19.83 24.9-20.3 25.05-20.5L25.05-20.5Q26.95-20.6 28.7-20.85 30.45-21.1 31.75-21.5L31.75-21.5Q31.95-21.5 32.12-21.1 32.3-20.7 32.3-20.5L32.3-20.5Q32.15-20.2 32.05-19.2 31.95-18.2 31.95-17.15L31.95-17.15 31.95-9.95Q31.95-6.05 33.12-4.23 34.3-2.4 36.85-2.4L36.85-2.4Q37.95-2.4 38.95-2.83 39.95-3.25 40.62-3.9 41.3-4.55 41.3-5.1L41.3-5.1ZM64.94-21.4L64.94-21.4Q67.14-21.4 68.52-20.48 69.89-19.55 70.5-17.35L70.5-17.35Q72.09-18.8 74.02-20.1 75.94-21.4 77.69-21.4L77.69-21.4Q80.34-21.4 81.69-20.3 83.05-19.2 83.52-16.9 84-14.6 84-11.05L84-11.05 84-5.65Q84-4.55 84.02-3.6 84.05-2.65 84.25-2.05L84.25-2.05Q84.34-1.8 84.97-1.6 85.59-1.4 86.3-1.33 87-1.25 87.3-1.25L87.3-1.25Q87.44-1.05 87.47-0.55 87.5-0.05 87.3 0.15L87.3 0.15Q85.8 0.05 84.67-0.03 83.55-0.1 82.09-0.1L82.09-0.1Q80.69-0.1 79.55-0.03 78.39 0.05 76.89 0.15L76.89 0.15Q76.69-0.05 76.72-0.55 76.75-1.05 76.89-1.25L76.89-1.25Q77.19-1.25 77.92-1.33 78.64-1.4 79.3-1.6 79.94-1.8 80-2.05L80-2.05Q80.14-2.55 80.17-3.33 80.19-4.1 80.19-5.05L80.19-5.05Q80.19-5.2 80.19-5.35 80.19-5.5 80.19-5.65L80.19-5.65 80.19-10.9Q80.19-13.35 79.87-15.05 79.55-16.75 78.59-17.65 77.64-18.55 75.64-18.55L75.64-18.55Q74.44-18.55 73.34-17.93 72.25-17.3 71.55-16.63 70.84-15.95 70.84-15.75L70.84-15.75Q70.84-15.7 70.87-15.48 70.89-15.25 70.89-15.15L70.89-15.15Q71-14.45 71.05-13.4 71.09-12.35 71.09-11.65L71.09-11.65 71.09-5.65Q71.09-4.55 71.12-3.6 71.14-2.65 71.34-2.05L71.34-2.05Q71.44-1.8 72.07-1.6 72.69-1.4 73.39-1.33 74.09-1.25 74.39-1.25L74.39-1.25Q74.55-1.05 74.57-0.55 74.59-0.05 74.39 0.15L74.39 0.15Q72.89 0.05 71.77-0.03 70.64-0.1 69.19-0.1L69.19-0.1Q67.8-0.1 66.64-0.03 65.5 0.05 63.99 0.15L63.99 0.15Q63.8-0.05 63.82-0.55 63.84-1.05 63.99-1.25L63.99-1.25Q64.3-1.25 65.02-1.33 65.75-1.4 66.39-1.6 67.05-1.8 67.09-2.05L67.09-2.05Q67.3-2.65 67.32-3.6 67.34-4.55 67.34-5.65L67.34-5.65 67.34-10.65Q67.34-15.1 66.37-16.82 65.39-18.55 62.74-18.55L62.74-18.55Q61.64-18.55 60.59-18 59.55-17.45 58.87-16.82 58.2-16.2 58.2-15.85L58.2-15.85 58.2-5.65Q58.2-4.55 58.22-3.6 58.24-2.65 58.45-2.05L58.45-2.05Q58.55-1.8 59.17-1.6 59.8-1.4 60.49-1.33 61.2-1.25 61.49-1.25L61.49-1.25Q61.64-1.05 61.67-0.55 61.7-0.05 61.49 0.15L61.49 0.15Q59.99 0.05 58.87-0.03 57.74-0.1 56.3-0.1L56.3-0.1Q54.89-0.1 53.74-0.03 52.59 0.05 51.09 0.15L51.09 0.15Q50.89-0.05 50.92-0.55 50.95-1.05 51.09-1.25L51.09-1.25Q51.39-1.25 52.12-1.33 52.84-1.4 53.49-1.6 54.14-1.8 54.2-2.05L54.2-2.05Q54.39-2.65 54.42-3.6 54.45-4.55 54.45-5.65L54.45-5.65 54.45-14.55Q54.45-15.05 54.42-15.95 54.39-16.85 54.2-17.3L54.2-17.3Q54.05-17.75 53.34-17.93 52.64-18.1 51.95-18.13 51.24-18.15 51.05-18.15L51.05-18.15Q50.99-18.25 50.95-18.75 50.89-19.25 51.05-19.45L51.05-19.45Q52.95-19.7 54.74-20.2 56.55-20.7 57.99-21.5L57.99-21.5Q58.2-21.5 58.37-21.2 58.55-20.9 58.55-20.7L58.55-20.7Q58.55-20.55 58.47-20 58.39-19.45 58.32-18.9 58.24-18.35 58.24-18.15L58.24-18.15Q58.24-17.95 58.34-17.95L58.34-17.95Q58.39-17.95 58.49-18.05L58.49-18.05Q59.09-18.6 60.09-19.38 61.09-20.15 62.37-20.78 63.64-21.4 64.94-21.4ZM92.04-28.95L92.04-28.95Q92.04-29.95 92.77-30.68 93.49-31.4 94.49-31.4L94.49-31.4Q95.49-31.4 96.22-30.68 96.94-29.95 96.94-28.95L96.94-28.95Q96.94-27.95 96.22-27.23 95.49-26.5 94.49-26.5L94.49-26.5Q93.49-26.5 92.77-27.23 92.04-27.95 92.04-28.95ZM96.74-17.5L96.74-5.65Q96.74-4.55 96.77-3.6 96.79-2.65 96.99-2.05L96.99-2.05Q97.09-1.8 97.72-1.6 98.34-1.4 99.04-1.33 99.74-1.25 100.04-1.25L100.04-1.25Q100.19-1.05 100.22-0.55 100.24-0.05 100.04 0.15L100.04 0.15Q98.54 0.05 97.42-0.03 96.29-0.1 94.84-0.1L94.84-0.1Q93.44-0.1 92.29-0.03 91.14 0.05 89.64 0.15L89.64 0.15Q89.44-0.05 89.47-0.55 89.49-1.05 89.64-1.25L89.64-1.25Q89.94-1.25 90.67-1.33 91.39-1.4 92.04-1.6 92.69-1.8 92.74-2.05L92.74-2.05Q92.94-2.65 92.97-3.6 92.99-4.55 92.99-5.65L92.99-5.65 92.99-14.75Q92.99-15.25 92.97-16.05 92.94-16.85 92.74-17.3L92.74-17.3Q92.59-17.75 91.89-17.93 91.19-18.1 90.49-18.13 89.79-18.15 89.59-18.15L89.59-18.15Q89.54-18.25 89.49-18.75 89.44-19.25 89.59-19.45L89.59-19.45Q91.49-19.7 93.29-20.2 95.09-20.7 96.54-21.5L96.54-21.5Q96.74-21.5 96.92-21.2 97.09-20.9 97.09-20.7L97.09-20.7Q97.09-20.55 96.99-19.85 96.89-19.15 96.82-18.45 96.74-17.75 96.74-17.5L96.74-17.5ZM108.84-27.5L108.84-21.1 115.14-21.1Q115.39-21.1 115.39-20.55L115.39-20.55Q115.39-19.8 114.69-19.1L114.69-19.1 108.84-19.1 108.84-6.3Q108.84-2.3 112.09-2.3L112.09-2.3Q113.19-2.3 114.09-2.75 114.99-3.2 115.24-3.4L115.24-3.4Q115.39-3.35 115.39-3.1L115.39-3.1Q115.39-2.55 115.19-2.35L115.19-2.35Q114.84-1.95 114.12-1.3 113.39-0.65 112.39-0.15 111.39 0.35 110.19 0.35L110.19 0.35Q108.94 0.35 107.77-0.1 106.59-0.55 105.84-1.7 105.09-2.85 105.09-4.95L105.09-4.95 105.09-19.1 102.24-19.1Q102.14-19.1 102.09-19.28 102.04-19.45 102.04-19.55L102.04-19.55Q102.04-19.65 102.34-20.03 102.64-20.4 102.97-20.75 103.29-21.1 103.29-21.1L103.29-21.1 105.09-21.1 105.09-24.15Q105.59-24.7 106.27-25.43 106.94-26.15 107.49-26.78 108.04-27.4 108.09-27.45L108.09-27.45Q108.29-27.65 108.57-27.65 108.84-27.65 108.84-27.5L108.84-27.5Z" opacity="1" transform="matrix(1,0,0,1,0,0)" fill="black" class="wordmark-text-0" id="SvgjsPath1532"></path></svg></g></svg></g></svg></g></svg></g><g transform="matrix(1,0,0,1,74.94224345840254,0)"><svg viewBox="0 0 42.11551308319492 77.4898407079646" height="77.4898407079646" width="42.11551308319492"><g><svg xmlns="http://www.w3.org/2000/svg" data-name="Layer 1" viewBox="0 0 190.686 350.85" x="0" y="0" id="SvgjsSvg1531" width="42.11551308319492" height="77.4898407079646" class="icon-icon-0" data-fill-palette-color="accent"><path d="M181.936 350.85H8.75A8.76 8.76 0 0 1 0 342.1V329.478A24.8 24.8 0 0 1 3.137 318.257L88.472 177.749A5.41 5.41 0 0 0 88.474 173.101L3.14 32.607A24.8 24.8 0 0 1 0 21.382V8.75A8.76 8.76 0 0 1 8.75 0H181.936A8.76 8.76 0 0 1 190.686 8.75V29.19A8.76 8.76 0 0 1 181.936 37.94H53.765L124.128 153.212A24.6 24.6 0 0 1 127.283 164.433V186.817A24.6 24.6 0 0 1 124.12 198.042L53.767 312.9 181.937 312.92A8.76 8.76 0 0 1 190.686 321.67V342.1A8.76 8.76 0 0 1 181.935 350.85M8.75 7.5A1.265 1.265 0 0 0 7.5 8.75V21.382A17.6 17.6 0 0 0 9.553 28.716L94.883 169.204A12.77 12.77 0 0 1 94.88 181.646L9.55 322.148A17.6 17.6 0 0 0 7.5 329.478V342.1A1.265 1.265 0 0 0 8.75 343.35H181.936A1.265 1.265 0 0 0 183.186 342.1V321.67A1.265 1.265 0 0 0 181.936 320.42H52.061A6.253 6.253 0 0 1 46.477 310.444L117.722 194.126A17.4 17.4 0 0 0 119.782 186.816V164.434A17.4 17.4 0 0 0 117.728 157.119L46.465 40.41A6.258 6.258 0 0 1 52.06 30.44H181.936A1.265 1.265 0 0 0 183.186 29.19V8.75A1.265 1.265 0 0 0 181.936 7.5Z" fill="black"></path></svg></g></svg></g><g></g></svg></g></svg></g></svg></g></svg></g><defs><mask></mask></defs></svg><rect width="320" height="360" fill="black" stroke="none" visibility="hidden"></rect></g></mask></svg><rect width="320" height="360" fill="black" stroke="none" visibility="hidden"></rect></g></mask></svg><rect width="320" height="360" fill="black" stroke="none" visibility="hidden"></rect></g></mask><linearGradient x1="0.054" x2="0.941" y1="0.5" y2="0.5" id="663a64fc-9a20-43a1-bb4b-8b287ee9caa7"><stop stop-color="#864d25" offset="0"></stop><stop stop-color="#f1c4b3" offset="0.498"></stop><stop stop-color="#864d25" offset="1"></stop></linearGradient></svg><rect width="320" height="360" fill="none" stroke="none" visibility="hidden"></rect></g></svg></g></svg>